<?xml version="1.0" encoding="UTF-8"?>
<svg id="Layer_1" xmlns="http://www.w3.org/2000/svg" version="1.1" viewBox="0 0 134.69 113">
  <!-- Generator: Adobe Illustrator 30.2.1, SVG Export Plug-In . SVG Version: 2.1.1 Build 1)  -->
  <defs>
    <style>
      .st0 {
        fill: #070808;
      }

      .st1, .st2 {
        fill: #fff;
      }

      .st1, .st3 {
        fill-rule: evenodd;
      }

      .st4 {
        fill: #e32437;
      }

      .st5 {
        fill: #231f20;
      }

      .st6 {
        fill: #ffd63f;
      }

      .st7 {
        fill: #f37527;
      }

      .st8 {
        isolation: isolate;
      }

      .st9 {
        fill: #a24f24;
      }

      .st10 {
        fill: #ee2737;
      }

      .st11 {
        fill: #e3dbd9;
      }

      .st3 {
        fill: #e51c8b;
      }

      .st12 {
        fill-opacity: 0;
      }

      .st13 {
        fill: #090909;
      }
    </style>
  </defs>
  <g>
    <path class="st2" d="M67.42,97.72c-3.5,0-6.95-.94-9.97-2.72l-18.57-9.01-.19-.12c-2.89-1.74-5.27-4.57-6.87-8.17-1.34-3.03-2.08-6.54-2.08-9.89l.15-21.73c-.69-7.45,2.67-14.76,8.37-18.2l.1-.06,19.1-9.82c2.97-1.76,6.43-2.71,9.96-2.71s6.97.95,10,2.74l17.78,9.01.12.07c6.38,3.74,9.61,9.9,9.61,18.32v22.56c0,6.38-2.9,14.99-9.25,18.82l-.23.15-18.17,8.11c-2.99,1.74-6.4,2.66-9.86,2.66h-.01Z"/>
    <path class="st13" d="M67.42,96.71c-3.33,0-6.59-.89-9.46-2.58l-18.58-9.02-.14-.09c-2.74-1.65-4.99-4.33-6.5-7.74-1.28-2.9-1.99-6.27-1.99-9.48l.15-21.77c-.68-7.1,2.48-14.04,7.89-17.3l.1-.06,19.04-9.79c2.87-1.7,6.15-2.6,9.5-2.6s6.62.9,9.49,2.6l17.84,9.04.09.05c6.03,3.53,9.09,9.4,9.09,17.45v22.56c0,6.11-2.75,14.34-8.77,17.96l-.19.12-18.15,8.1c-2.85,1.67-6.1,2.55-9.4,2.55h-.01Z"/>
    <path class="st7" d="M67.42,94.4c-2.94,0-5.84-.8-8.36-2.31l-18.57-9.02-.05-.03c-2.34-1.41-4.27-3.72-5.59-6.7-1.16-2.61-1.79-5.65-1.79-8.55l.15-21.87c-.64-6.27,2.07-12.38,6.77-15.21l.04-.02,19.03-9.78c2.53-1.51,5.43-2.31,8.38-2.31s5.84.8,8.37,2.31l17.85,9.04.04.02c5.35,3.13,7.95,8.18,7.95,15.45v22.56c0,5.65-2.63,12.96-7.65,15.99l-.07.04-18.14,8.1c-2.52,1.5-5.41,2.3-8.34,2.3h-.02,0Z"/>
    <path class="st2" d="M34.56,45.86l-.15,21.94c0,5.25,2.23,11.39,6.73,14.1l18.57,9.02c4.75,2.86,10.69,2.86,15.44,0l18.14-8.09c4.5-2.71,7-9.59,7-14.83v-22.56c0-5.25-1.29-10.79-7.28-14.29l-17.86-9.05c-4.75-2.86-10.69-2.86-15.44,0l-19.03,9.78c-4.5,2.71-6.7,8.54-6.12,13.99h0Z"/>
    <g>
      <path d="M53.01,51.69h-2.98v-15.27h4.68l2.78,12.11,2.75-12.11h4.61v15.27h-2.98v-12.83l-2.86,12.83h-3.13l-2.86-13.12v13.12h0Z"/>
      <path d="M71.94,45.95l-5.33-9.52h3.79l3.19,6.62,2.98-6.62h3.61l-5.05,9.46v5.8h-3.19v-5.75h0Z"/>
    </g>
    <rect x="50.03" y="53.2" width="28.9" height=".43"/>
    <g>
      <rect class="st7" x="79.69" y="53.2" width="2.32" height=".43"/>
      <polygon class="st7" points="81.52 52.34 83.95 53.42 81.52 54.5 81.52 52.34 81.52 52.34"/>
    </g>
    <path d="M50.03,70.89v-15.83h2.98v15.83h-2.98Z"/>
    <path d="M58.46,70.89h-2.79v-15.83h3.14l5.74,11.1v-11.1h2.79v15.83h-2.97l-5.9-11.4v11.4h0Z"/>
    <path d="M69.08,70.89l5.06-15.83h3.46l5.07,15.83h-3.17l-.96-3.22h-5.44l-.94,3.22s-3.08,0-3.08,0ZM75.83,58.58l-1.89,6.37h3.81l-1.91-6.37h0Z"/>
    <path d="M87.24,70.89h-2.79v-15.83h3.14l5.74,11.1v-11.1h2.79v15.83h-2.97l-5.9-11.4v11.4h0Z"/>
    <rect x="40.95" y="55.06" width="6.38" height="2.98"/>
    <path d="M44.33,55.06h3v11.38c0,1.61-.39,2.83-1.17,3.65s-1.93,1.23-3.45,1.23c-1.62,0-2.8-.45-3.55-1.36-.75-.9-1.1-2.3-1.05-4.18v-.96h2.84v.96c-.02.96.11,1.67.39,2.13s.73.69,1.34.69,1.01-.17,1.27-.5c.26-.33.38-.89.38-1.66v-11.38h0Z"/>
    <g>
      <g>
        <polygon class="st11" points="68.86 80.39 68.87 80.39 68.87 80.39 68.86 80.39"/>
        <polygon points="68.87 80.41 68.87 80.41 68.86 80.41 68.86 80.41 68.87 80.37 68.87 80.37 69 80.38 68.87 80.41"/>
      </g>
      <g>
        <path class="st7" d="M55.46,74.04c-2.12,0-3.85,1.72-3.85,3.85s1.72,3.85,3.85,3.85c1.43,0,3.06-.78,3.98-1.93h18.51c.87,1.31,2.54,2.21,4.12,2.21,2.01,0,3.68-1.43,4.05-3.33l-1.07.33h0l-1.95,1.13-1.95-1.12v-2.25l1.95-1.12,1.95,1.12h0l1.07.33c-.37-1.9-2.04-3.33-4.05-3.33-1.59,0-3.25.9-4.12,2.21h-18.51c-.92-1.15-2.56-1.93-3.98-1.93v-.02h0ZM55.46,75.26l2.27,1.31v2.62l-2.27,1.31-2.27-1.31v-2.62l2.27-1.31Z"/>
        <path d="M82.08,82.09c-1.6,0-3.27-.89-4.17-2.21h-18.42c-.93,1.14-2.58,1.93-4.02,1.93-2.17,0-3.93-1.76-3.93-3.93s1.76-3.93,3.93-3.93c1.45,0,3.1.79,4.02,1.93h18.42c.9-1.32,2.56-2.21,4.17-2.21,2.01,0,3.75,1.43,4.13,3.4l.03.14-1.27-.39v-.02l-1.86-1.07-1.86,1.07v2.15l1.86,1.07,1.86-1.07h0l.06-.04,1.21-.37-.03.14c-.38,1.97-2.12,3.4-4.13,3.4h0ZM59.4,79.71h18.6l.03.04c.86,1.3,2.49,2.17,4.05,2.17,1.88,0,3.51-1.3,3.93-3.12l-.92.28-1.99,1.15-2.03-1.17v-2.35l2.03-1.17,2,1.15.91.28c-.42-1.82-2.05-3.12-3.93-3.12-1.56,0-3.19.87-4.05,2.17l-.03.04h-18.6l-.03-.03c-.89-1.12-2.5-1.9-3.92-1.9-2.07,0-3.76,1.69-3.76,3.76s1.69,3.76,3.76,3.76c1.41,0,3.02-.78,3.92-1.9l.03-.03h0ZM55.46,80.6l-2.36-1.36v-2.72l2.36-1.36,2.36,1.36v2.72l-2.36,1.36ZM53.28,79.14l2.18,1.26,2.18-1.26v-2.52l-2.18-1.26-2.18,1.26v2.52Z"/>
      </g>
      <g>
        <rect class="st9" x="60.01" y="77.22" width="17.98" height="1.33"/>
        <path d="M78.01,78.57h-18.02v-1.37h18.02v1.37ZM60.03,78.52h17.94v-1.28h-17.94v1.28Z"/>
      </g>
    </g>
  </g>
  <g>
    <path class="st5" d="M-136.27-32.17"/>
    <path class="st5" d="M-135.36-35.03"/>
    <path class="st5" d="M-134.4-39.23"/>
  </g>
  <g>
    <g>
      <path class="st2" d="M-258.1-9.71v-1.46c0-.09,0-.17-.02-.23,0-.05-.03-.11-.05-.14-.03-.03-.06-.05-.12-.06s-.14-.02-.23-.02h-.76v1.92h-.75v-1.92h-.72c-.09,0-.17,0-.23.02-.05,0-.09.04-.13.07s-.05.07-.06.14c0,.06-.02.14-.02.23v1.46h-.75v-1.62c0-.17.02-.32.05-.43.04-.13.11-.23.19-.3.08-.08.21-.14.35-.18.14-.03.32-.05.53-.05h2.32c.21,0,.38.02.53.05s.26.09.36.18.16.18.19.3c.03.12.05.26.05.43v1.62h-.74.01,0Z"/>
      <path class="st2" d="M-243.21-9.71v-.62h2.28c.11,0,.15-.02.17-.04.03-.02.04-.07.04-.14v-.05s-.01-.08-.04-.11c-.02-.02-.06-.04-.17-.04h-1.52c-.26,0-.46-.05-.58-.17s-.18-.27-.18-.49v-.27c0-.09.01-.19.04-.27s.07-.16.14-.22.14-.11.24-.14c.09-.03.21-.04.35-.04h2.34v.62h-2.17c-.11,0-.15.02-.17.04s-.04.09-.04.17v.02s.01.08.04.11c.02.02.06.04.17.04h1.53c.26,0,.46.06.58.17.12.12.18.27.18.48v.25c0,.11-.01.2-.04.28s-.07.16-.14.22-.14.11-.24.14c-.09.03-.21.04-.35.04h-2.46v.02h0Z"/>
      <path class="st2" d="M-219.49-9.71v-.62h2.28c.11,0,.15-.02.17-.04.03-.02.04-.07.04-.14v-.05s-.01-.08-.04-.11c-.02-.02-.06-.04-.17-.04h-1.52c-.26,0-.46-.05-.58-.17s-.18-.27-.18-.49v-.27c0-.09.01-.19.04-.27s.07-.16.14-.22.14-.11.24-.14c.09-.03.21-.04.35-.04h2.34v.62h-2.17c-.11,0-.15.02-.17.04s-.04.09-.04.17v.02s.01.08.04.11c.02.02.06.04.17.04h1.53c.26,0,.46.06.58.17.12.12.18.27.18.48v.25c0,.11-.01.2-.04.28s-.07.16-.14.22-.14.11-.24.14c-.09.03-.21.04-.35.04h-2.46v.02h0Z"/>
      <path class="st2" d="M-235.49-9.71v-1.62c0-.17.02-.32.05-.43.04-.13.11-.23.19-.3.08-.08.21-.14.35-.18.14-.03.32-.05.53-.05h1.4v.64h-1.33c-.09,0-.17,0-.23.02-.05,0-.09.04-.13.07-.03.03-.05.07-.06.14-.01.06-.02.14-.02.23v1.49h-.75.01Z"/>
      <path class="st2" d="M-225.86-9.71c-.21,0-.39-.02-.53-.05-.15-.03-.26-.09-.36-.17-.09-.08-.16-.18-.19-.3-.04-.12-.05-.26-.05-.43v-.65c0-.17.02-.32.05-.43.04-.13.11-.23.19-.3.08-.08.21-.14.35-.18.14-.03.32-.05.53-.05h1.95v.64h-1.89c-.09,0-.18,0-.23.02-.05,0-.09.04-.13.07-.03.03-.05.07-.06.14-.01.06-.02.14-.02.23v.41c0,.09,0,.17.02.23.01.05.03.09.06.13s.07.05.13.07c.06,0,.14.02.23.02h1.89v.64h-1.95v-.03h.01Z"/>
      <rect class="st2" x="-248.53" y="-13.23" width=".75" height=".68"/>
      <rect class="st2" x="-248.53" y="-12.3" width=".74" height="2.58"/>
      <rect class="st2" x="-228.38" y="-13.23" width=".75" height=".68"/>
      <rect class="st2" x="-228.38" y="-12.3" width=".74" height="2.58"/>
      <path class="st2" d="M-231.99-12.1"/>
      <path class="st2" d="M-231.99-12.1"/>
      <polygon class="st2" points="-231.16 -9.71 -232.62 -12.3 -231.83 -12.3 -230.77 -10.48 -229.7 -12.3 -228.92 -12.3 -230.38 -9.71 -231.16 -9.71"/>
      <polygon class="st2" points="-211.02 -9.71 -211.59 -11.53 -212.17 -9.71 -213.26 -9.71 -214.09 -12.3 -213.31 -12.3 -212.71 -10.43 -212.12 -12.3 -211.06 -12.3 -210.47 -10.43 -209.88 -12.3 -209.1 -12.3 -209.93 -9.71 -211.02 -9.71"/>
      <rect class="st2" x="-208.85" y="-10.44" width=".75" height=".74"/>
      <rect class="st2" x="-205.84" y="-10.44" width=".75" height=".74"/>
      <rect class="st2" x="-207.34" y="-13.22" width=".74" height="3.5"/>
      <rect class="st2" x="-204.36" y="-13.22" width=".74" height="3.5"/>
      <path class="st2" d="M-244.57-9.71v-.6h0v-.38s0-.05-.02-.06c0,0-.03-.02-.09-.02h-1.51c-.08,0-.14,0-.17.04-.03.03-.04.07-.04.14v.09c0,.07.01.12.04.15s.08.04.17.04h1.38v.6h-1.56c-.14,0-.25,0-.35-.04-.09-.03-.18-.07-.23-.13-.06-.05-.11-.14-.13-.22-.02-.09-.03-.28-.03-.4v-.22c0-.09.01-.19.03-.26.02-.08.06-.16.13-.21.06-.05.14-.09.23-.13.09-.03.21-.04.35-.04h1.8s0-.08-.02-.12c-.01-.04-.03-.07-.06-.11s-.07-.04-.13-.06c-.06,0-.14-.02-.23-.02h-1.43v-.64h1.49c.21,0,.38.02.53.05.15.04.26.09.36.18.08.08.16.18.19.3.04.13.05.26.05.43v1.62h-.75.01Z"/>
      <path class="st2" d="M-255.59-9.71c-.21,0-.39-.02-.53-.05-.15-.03-.26-.09-.36-.17-.09-.08-.16-.18-.19-.3-.04-.12-.05-.26-.05-.43v-.65c0-.17.02-.32.05-.43.04-.13.11-.23.19-.3.08-.08.21-.14.35-.18.14-.03.32-.05.53-.05h1.28c.16,0,.29,0,.4.04.11.03.2.07.26.14s.12.15.14.25c.02.09.04.22.04.36v.74h-2.51v.06c0,.13.03.22.08.27.04.04.14.08.37.08h2.03v.64h-2.09.01ZM-254.2-11.36v-.14c0-.08,0-.14-.04-.17-.02-.02-.07-.04-.19-.04h-1.09c-.23,0-.33.04-.37.08-.05.05-.08.14-.08.26h1.78Z"/>
      <path class="st2" d="M-238.3-9.71c-.21,0-.39-.02-.53-.05-.15-.03-.26-.09-.36-.17-.09-.08-.16-.18-.19-.3-.04-.12-.05-.26-.05-.43v-.65c0-.17.02-.32.05-.43.04-.13.11-.23.19-.3.08-.08.21-.14.35-.18.14-.03.32-.05.53-.05h1.28c.16,0,.29,0,.4.04s.2.07.26.14.12.15.14.25c.02.09.04.22.04.36v.74h-2.51v.06c0,.13.03.22.08.27.04.04.14.08.37.08h2.03v.64h-2.09.01ZM-236.91-11.36v-.14c0-.08-.01-.14-.04-.17-.02-.02-.07-.04-.19-.04h-1.09c-.23,0-.33.04-.37.08-.05.05-.08.14-.08.26h1.78Z"/>
      <path class="st2" d="M-222.26-9.71c-.21,0-.39-.02-.53-.05-.15-.03-.26-.09-.36-.17-.09-.08-.16-.18-.19-.3-.04-.12-.05-.26-.05-.43v-.65c0-.17.02-.32.05-.43.04-.13.11-.23.19-.3.08-.08.21-.14.35-.18.14-.03.32-.05.53-.05h1.28c.16,0,.29,0,.4.04s.2.07.26.14.12.15.14.25c.02.09.04.22.04.36v.74h-2.51v.06c0,.13.03.22.08.27.04.04.14.08.37.08h2.03v.64h-2.09.01ZM-220.88-11.36v-.14c0-.08-.01-.14-.04-.17-.02-.02-.07-.04-.19-.04h-1.09c-.23,0-.33.04-.37.08-.05.05-.08.14-.08.26h1.78Z"/>
      <path class="st2" d="M-249.28-13.22h-.74v.91h0v.64h0v.86c0,.09,0,.17-.02.23-.01.05-.03.09-.06.13s-.07.05-.13.07c-.06,0-.14.02-.23.02h-1.15c-.09,0-.17,0-.23-.02-.05,0-.09-.04-.13-.07-.03-.03-.05-.07-.06-.13-.01-.06-.02-.14-.02-.23v-.41c0-.09,0-.17.02-.23.01-.05.03-.11.06-.14s.07-.05.13-.07c.06,0,.14-.02.23-.02h1.27v-.64h-1.33c-.21,0-.39.02-.53.05-.15.03-.26.09-.35.18-.09.08-.16.18-.19.3-.04.12-.05.26-.05.43v.65c0,.17.02.32.05.43.04.13.11.23.19.3.08.08.21.14.36.17.14.03.32.05.53.05h1.27c.21,0,.38-.02.53-.05s.26-.09.36-.17c.09-.08.16-.18.19-.3.04-.12.05-.26.05-.43v-2.54l-.02.02h0Z"/>
    </g>
    <g>
      <path class="st2" d="M-253.24-38.68c0,.49.17.9.5,1.24s.75.5,1.24.5h6.97c.48,0,.9-.17,1.24-.5s.5-.75.5-1.24v-5.22c0-.48-.17-.89-.5-1.23s-.75-.5-1.24-.5h-6.97v-5.23h12.19c.71,0,1.4.14,2.04.42s1.19.65,1.65,1.12c.46.46.84,1.02,1.11,1.66.28.64.42,1.32.42,2.04v8.71c0,.72-.14,1.4-.42,2.04-.28.64-.65,1.19-1.11,1.65-.46.46-1.01.83-1.65,1.11-.63.28-1.31.42-2.04.42h-17.4c-.71,0-1.4-.15-2.04-.42-.64-.28-1.19-.65-1.65-1.12-.46-.46-.83-1.02-1.11-1.66-.27-.64-.42-1.32-.42-2.04v-20.89h8.7v19.14h-.01Z"/>
      <path class="st2" d="M-221.91-45.69h-8.7v-5.27h8.7v5.27ZM-230.59-44.59h8.7v12.9h-8.7v-12.9Z"/>
    </g>
    <path class="st2" d="M-249.4-21.77c0,.23-.11.44-.33.6-.22.17-.48.24-.8.24h-4.62c-.32,0-.59-.08-.8-.24-.22-.16-.33-.37-.33-.6v-5.92h-5.65v6.76c0,.35.09.68.27,1s.42.58.72.81.66.41,1.07.55.85.2,1.32.2h2.88v3.1h5.65v-3.1h2.87c.46,0,.9-.06,1.32-.2.41-.14.77-.32,1.07-.55.3-.23.55-.49.72-.81.18-.32.27-.64.27-1v-6.76h-5.65v5.92h-.01Z"/>
    <path class="st2" d="M-223.96-25.38c0-.34-.09-.65-.27-.96-.18-.29-.42-.56-.72-.78s-.66-.39-1.07-.53c-.42-.13-.86-.2-1.32-.2h-11.31v2.45h7.92c.32,0,.59.08.8.24.22.16.33.35.33.58v.28h-9c-.47,0-.9.06-1.32.2s-.78.3-1.07.53c-.3.22-.55.47-.72.78-.18.3-.27.62-.27.96v4.08c0,.34.09.65.27.96.18.29.42.56.72.77.3.22.66.39,1.07.53.41.13.85.2,1.32.2h7.92v-2.45h-4.53c-.32,0-.59-.07-.81-.23s-.33-.35-.33-.58v-2.44c0-.23.11-.42.33-.58s.48-.24.81-.24h4.53c.32,0,.59.07.8.24.15.11.23.22.28.36v2.37h.04v3.55h5.65v-6.51c0-.13-.02-.25-.04-.38,0,0,0-3.19,0-3.19Z"/>
    <path class="st2" d="M-214.3-24.32h10.75v-3.38h-14.71c-.46,0-.91.08-1.32.27-.42.18-.78.42-1.07.72-.3.29-.55.65-.72,1.07-.18.41-.27.85-.27,1.32v1.12c0,.46.09.9.27,1.32.18.41.42.77.72,1.07s.66.54,1.07.71.86.27,1.32.27h7.35c.17,0,.3.05.41.16s.16.23.16.4-.05.29-.16.4-.24.16-.41.16h-10.75v3.38h14.71c.47,0,.9-.09,1.32-.27.41-.18.77-.42,1.07-.71.3-.3.55-.65.72-1.07.18-.41.27-.85.27-1.31v-1.12c0-.46-.09-.9-.27-1.31s-.42-.77-.72-1.07-.65-.54-1.07-.72c-.41-.18-.85-.27-1.32-.27h-7.35c-.17,0-.3-.05-.41-.16s-.16-.24-.16-.41.05-.29.16-.41c.11-.11.24-.16.41-.16h0Z"/>
    <path class="st2" d="M-269.2-59.46V-9.91c0,.53.81.53.81,0v-49.55c0-.53-.81-.53-.81,0h0Z"/>
    <path class="st2" d="M-284.16-40.16c-5.65,0-10.27-4.6-10.27-10.25s4.6-10.25,10.27-10.25,10.25,4.6,10.25,10.25-4.6,10.25-10.25,10.25h0ZM-284.16-60.3c-5.44,0-9.88,4.43-9.88,9.88s4.43,9.88,9.88,9.88,9.88-4.43,9.88-9.88-4.43-9.88-9.88-9.88h0Z"/>
    <path class="st2" d="M-289.29-9.39c-3.85,0-7.46-1.49-10.17-4.21-2.72-2.72-4.21-6.34-4.21-10.17s1.49-7.46,4.21-10.17h0c2.72-2.72,6.34-4.21,10.17-4.21s7.46,1.49,10.17,4.21c2.72,2.72,4.21,6.34,4.21,10.17s-1.49,7.46-4.21,10.17c-2.72,2.72-6.33,4.21-10.17,4.21h0ZM-289.29-37.76c-3.73,0-7.24,1.45-9.88,4.1h0c-2.64,2.64-4.09,6.15-4.09,9.88s1.45,7.24,4.09,9.88,6.15,4.1,9.88,4.1,7.24-1.45,9.88-4.1c2.64-2.64,4.1-6.15,4.1-9.88s-1.45-7.24-4.1-9.88c-2.64-2.64-6.15-4.1-9.88-4.1Z"/>
    <path class="st1" d="M-279.7-43.86l-.41-1.18.45-.38,1.09.61.38-.46-.7-1.03.34-.48,1.21.32.25-.54-.95-.81.2-.56h1.25l.09-.6-1.12-.55.05-.58,1.2-.35-.05-.59-1.23-.23-.09-.58,1.07-.64-.2-.55-1.24.08-.24-.54.87-.89-.34-.48-1.19.41-.38-.45.61-1.09-.45-.38-1.03.7-.48-.34.32-1.22-.54-.24-.82.95-.55-.21-.02-1.25-.58-.11-.55,1.12-.59-.05-.35-1.21-.59.05-.23,1.23-.58.11-.64-1.08-.56.21.09,1.25-.54.24-.89-.87-.48.34.41,1.19-.45.38-1.09-.61-.38.45.7,1.04-.34.47-1.22-.3-.24.54.95.81-.21.56-1.25.02-.11.58,1.12.55-.05.58-1.21.34.05.59,1.23.24.11.58-1.07.64.21.56,1.25-.09.24.54-.87.89.34.49,1.19-.41.38.45-.61,1.09.45.38,1.03-.7.47.34-.3,1.21.54.25.82-.95.55.2.02,1.25.58.11.55-1.12.59.05.34,1.2.59-.05.24-1.23.58-.11.64,1.07.56-.2-.09-1.25.54-.25.89.87.49-.35v.02h-.01ZM-280.88-45.95l-2.13-3.35c.27-.35.4-.81.33-1.25l3.38-2.14c1.12,2.33.46,5.16-1.59,6.75h.01ZM-279.95-53.73l-3.37,2.13c-.38-.27-.86-.38-1.31-.27l-2.13-3.35c2.33-1.19,5.19-.55,6.81,1.49h.01ZM-287.78-54.55l2.15,3.4c-.21.34-.28.76-.21,1.16l-3.37,2.14c-1.12-2.29-.53-5.07,1.43-6.69h0ZM-288.56-46.83l3.38-2.14c.32.22.7.32,1.09.27l2.16,3.4c-2.28,1.08-5.04.44-6.64-1.52h0Z"/>
    <path class="st1" d="M-295.59-36.28l1.08-.68.48.29-.22,1.22.51.24.74-1.05.56.08.26,1.22.57.02.28-1.25.55-.14.7,1.02.54-.2-.22-1.26.46-.34,1.05.67.41-.39-.68-1.08.29-.48,1.22.22.23-.51-1.05-.74.08-.56,1.21-.26.02-.57-1.24-.28-.14-.55,1.02-.7-.2-.54-1.26.22-.34-.45.67-1.04-.39-.41-1.08.68-.49-.29.22-1.22-.51-.23-.74,1.05-.57-.08-.26-1.22-.57-.02-.27,1.25-.55.14-.71-1.02-.54.2.22,1.26-.45.34-1.03-.67-.42.39.69,1.08-.29.48-1.22-.22-.24.51,1.05.74-.08.56-1.22.27-.02.57,1.25.28.14.55-1.02.7.2.54,1.26-.22.34.46-.67,1.04.39.41v-.03h0ZM-290.17-37.86c-1.06.74-2.49.76-3.56.04l1.09-1.16c.41.18.88.18,1.29,0l1.18,1.11h0ZM-289.32-38.74l-1.17-1.1c.18-.43.16-.92-.06-1.34l1.09-1.16c.8,1.05.85,2.5.14,3.6h0ZM-290.37-43.15l-1.12,1.19c-.38-.12-.8-.09-1.17.07l-1.17-1.1c1.02-.74,2.39-.79,3.46-.16h0ZM-294.66-42.1l1.18,1.1c-.14.36-.14.77,0,1.12l-1.12,1.19c-.67-1.02-.7-2.37-.06-3.41h.01Z"/>
    <path class="st1" d="M-283.77-13.08l-.25-1.42.55-.3,1.07.86.39-.29-.48-1.34.48-.39,1.21.66.34-.37-.71-1.24.41-.47,1.3.44.26-.41-.92-1.1.33-.54,1.36.21.18-.45-1.09-.92.22-.59,1.37-.02.11-.48-1.23-.72.12-.62,1.34-.26.02-.49-1.34-.49v-.63l1.29-.5-.07-.48-1.4-.25-.11-.63,1.17-.71-.15-.47h-1.42l-.21-.6,1.03-.91-.23-.44-1.4.24-.3-.56.85-1.08-.3-.39-1.33.48-.4-.49.66-1.21-.37-.34-1.23.71-.47-.42.44-1.31-.42-.27-1.08.92-.55-.34.21-1.37-.45-.19-.91,1.09-.59-.23-.03-1.38-.48-.12-.7,1.24-.62-.13-.27-1.36-.48-.02-.49,1.33h-.63l-.5-1.3-.48.06-.24,1.41-.62.09-.72-1.19-.46.15v1.43l-.6.21-.9-1.04-.43.22.24,1.41-.55.3-1.07-.87-.39.3.49,1.34-.49.4-1.21-.67-.34.37.71,1.24-.41.47-1.3-.44-.26.42.91,1.09-.32.55-1.36-.21-.19.46,1.09.91-.22.6-1.38.02-.11.48,1.23.71-.12.62-1.34.27-.02.49,1.33.49v.63l-1.28.5.06.49,1.41.25.11.63-1.17.71.15.47h1.42l.21.61-1.03.91.23.44,1.4-.24.3.55-.86,1.08.3.4,1.33-.48.4.49-.65,1.21.37.34,1.23-.7.47.42-.43,1.31.41.26,1.08-.91.54.34-.2,1.37.45.19.91-1.09.59.23.04,1.39.48.11.7-1.23.62.13.27,1.36.48.02.48-1.33h.63l.5,1.3.49-.07.24-1.4.62-.11.71,1.19.47-.15v-1.43l.59-.2.91,1.04.43-.22.02-.05h0ZM-280.71-27.32c1.75,4.44-.05,9.52-4.22,11.8l-3.41-7.19c.32-.32.49-.76.47-1.2l7.17-3.4h0ZM-281.23-28.42l-7.14,3.38c-.35-.32-.81-.47-1.27-.42l-3.44-7.21c4.41-1.81,9.53.03,11.85,4.24h0ZM-294.17-32.13l3.45,7.26c-.25.32-.38.71-.35,1.12l-7.13,3.39c-1.78-4.39-.04-9.45,4.03-11.77h0ZM-297.68-19.25l7.14-3.4c.29.25.67.4,1.06.4l3.45,7.25c-4.35,1.68-9.34-.13-11.65-4.23h0Z"/>
  </g>
  <g>
    <g>
      <path class="st2" d="M-258.1-9.71v-1.46c0-.09,0-.17-.02-.23,0-.05-.03-.11-.05-.14-.03-.03-.06-.05-.12-.06s-.14-.02-.23-.02h-.76v1.92h-.75v-1.92h-.72c-.09,0-.17,0-.23.02-.05,0-.09.04-.13.07s-.05.07-.06.14c0,.06-.02.14-.02.23v1.46h-.75v-1.62c0-.17.02-.32.05-.43.04-.13.11-.23.19-.3.08-.08.21-.14.35-.18.14-.03.32-.05.53-.05h2.32c.21,0,.38.02.53.05s.26.09.36.18.16.18.19.3c.03.12.05.26.05.43v1.62h-.74.01,0Z"/>
      <path class="st2" d="M-243.21-9.71v-.62h2.28c.11,0,.15-.02.17-.04.03-.02.04-.07.04-.14v-.05s-.01-.08-.04-.11c-.02-.02-.06-.04-.17-.04h-1.52c-.26,0-.46-.05-.58-.17s-.18-.27-.18-.49v-.27c0-.09.01-.19.04-.27s.07-.16.14-.22.14-.11.24-.14c.09-.03.21-.04.35-.04h2.34v.62h-2.17c-.11,0-.15.02-.17.04s-.04.09-.04.17v.02s.01.08.04.11c.02.02.06.04.17.04h1.53c.26,0,.46.06.58.17.12.12.18.27.18.48v.25c0,.11-.01.2-.04.28s-.07.16-.14.22-.14.11-.24.14c-.09.03-.21.04-.35.04h-2.46v.02h0Z"/>
      <path class="st2" d="M-219.49-9.71v-.62h2.28c.11,0,.15-.02.17-.04.03-.02.04-.07.04-.14v-.05s-.01-.08-.04-.11c-.02-.02-.06-.04-.17-.04h-1.52c-.26,0-.46-.05-.58-.17s-.18-.27-.18-.49v-.27c0-.09.01-.19.04-.27s.07-.16.14-.22.14-.11.24-.14c.09-.03.21-.04.35-.04h2.34v.62h-2.17c-.11,0-.15.02-.17.04s-.04.09-.04.17v.02s.01.08.04.11c.02.02.06.04.17.04h1.53c.26,0,.46.06.58.17.12.12.18.27.18.48v.25c0,.11-.01.2-.04.28s-.07.16-.14.22-.14.11-.24.14c-.09.03-.21.04-.35.04h-2.46v.02h0Z"/>
      <path class="st2" d="M-235.49-9.71v-1.62c0-.17.02-.32.05-.43.04-.13.11-.23.19-.3.08-.08.21-.14.35-.18.14-.03.32-.05.53-.05h1.4v.64h-1.33c-.09,0-.17,0-.23.02-.05,0-.09.04-.13.07-.03.03-.05.07-.06.14-.01.06-.02.14-.02.23v1.49h-.75.01Z"/>
      <path class="st2" d="M-225.86-9.71c-.21,0-.39-.02-.53-.05-.15-.03-.26-.09-.36-.17-.09-.08-.16-.18-.19-.3-.04-.12-.05-.26-.05-.43v-.65c0-.17.02-.32.05-.43.04-.13.11-.23.19-.3.08-.08.21-.14.35-.18.14-.03.32-.05.53-.05h1.95v.64h-1.89c-.09,0-.18,0-.23.02-.05,0-.09.04-.13.07-.03.03-.05.07-.06.14-.01.06-.02.14-.02.23v.41c0,.09,0,.17.02.23.01.05.03.09.06.13s.07.05.13.07c.06,0,.14.02.23.02h1.89v.64h-1.95v-.03h.01Z"/>
      <rect class="st2" x="-248.53" y="-13.23" width=".75" height=".68"/>
      <rect class="st2" x="-248.53" y="-12.3" width=".74" height="2.58"/>
      <rect class="st2" x="-228.38" y="-13.23" width=".75" height=".68"/>
      <rect class="st2" x="-228.38" y="-12.3" width=".74" height="2.58"/>
      <path class="st2" d="M-231.99-12.1"/>
      <path class="st2" d="M-231.99-12.1"/>
      <polygon class="st2" points="-231.16 -9.71 -232.62 -12.3 -231.83 -12.3 -230.77 -10.48 -229.7 -12.3 -228.92 -12.3 -230.38 -9.71 -231.16 -9.71"/>
      <polygon class="st2" points="-211.02 -9.71 -211.59 -11.53 -212.17 -9.71 -213.26 -9.71 -214.09 -12.3 -213.31 -12.3 -212.71 -10.43 -212.12 -12.3 -211.06 -12.3 -210.47 -10.43 -209.88 -12.3 -209.1 -12.3 -209.93 -9.71 -211.02 -9.71"/>
      <rect class="st2" x="-208.85" y="-10.44" width=".75" height=".74"/>
      <rect class="st2" x="-205.84" y="-10.44" width=".75" height=".74"/>
      <rect class="st2" x="-207.34" y="-13.22" width=".74" height="3.5"/>
      <rect class="st2" x="-204.36" y="-13.22" width=".74" height="3.5"/>
      <path class="st2" d="M-244.57-9.71v-.6h0v-.38s0-.05-.02-.06c0,0-.03-.02-.09-.02h-1.51c-.08,0-.14,0-.17.04-.03.03-.04.07-.04.14v.09c0,.07.01.12.04.15s.08.04.17.04h1.38v.6h-1.56c-.14,0-.25,0-.35-.04-.09-.03-.18-.07-.23-.13-.06-.05-.11-.14-.13-.22-.02-.09-.03-.28-.03-.4v-.22c0-.09.01-.19.03-.26.02-.08.06-.16.13-.21.06-.05.14-.09.23-.13.09-.03.21-.04.35-.04h1.8s0-.08-.02-.12c-.01-.04-.03-.07-.06-.11s-.07-.04-.13-.06c-.06,0-.14-.02-.23-.02h-1.43v-.64h1.49c.21,0,.38.02.53.05.15.04.26.09.36.18.08.08.16.18.19.3.04.13.05.26.05.43v1.62h-.75.01Z"/>
      <path class="st2" d="M-255.59-9.71c-.21,0-.39-.02-.53-.05-.15-.03-.26-.09-.36-.17-.09-.08-.16-.18-.19-.3-.04-.12-.05-.26-.05-.43v-.65c0-.17.02-.32.05-.43.04-.13.11-.23.19-.3.08-.08.21-.14.35-.18.14-.03.32-.05.53-.05h1.28c.16,0,.29,0,.4.04.11.03.2.07.26.14s.12.15.14.25c.02.09.04.22.04.36v.74h-2.51v.06c0,.13.03.22.08.27.04.04.14.08.37.08h2.03v.64h-2.09.01ZM-254.2-11.36v-.14c0-.08,0-.14-.04-.17-.02-.02-.07-.04-.19-.04h-1.09c-.23,0-.33.04-.37.08-.05.05-.08.14-.08.26h1.78Z"/>
      <path class="st2" d="M-238.3-9.71c-.21,0-.39-.02-.53-.05-.15-.03-.26-.09-.36-.17-.09-.08-.16-.18-.19-.3-.04-.12-.05-.26-.05-.43v-.65c0-.17.02-.32.05-.43.04-.13.11-.23.19-.3.08-.08.21-.14.35-.18.14-.03.32-.05.53-.05h1.28c.16,0,.29,0,.4.04s.2.07.26.14.12.15.14.25c.02.09.04.22.04.36v.74h-2.51v.06c0,.13.03.22.08.27.04.04.14.08.37.08h2.03v.64h-2.09.01ZM-236.91-11.36v-.14c0-.08-.01-.14-.04-.17-.02-.02-.07-.04-.19-.04h-1.09c-.23,0-.33.04-.37.08-.05.05-.08.14-.08.26h1.78Z"/>
      <path class="st2" d="M-222.26-9.71c-.21,0-.39-.02-.53-.05-.15-.03-.26-.09-.36-.17-.09-.08-.16-.18-.19-.3-.04-.12-.05-.26-.05-.43v-.65c0-.17.02-.32.05-.43.04-.13.11-.23.19-.3.08-.08.21-.14.35-.18.14-.03.32-.05.53-.05h1.28c.16,0,.29,0,.4.04s.2.07.26.14.12.15.14.25c.02.09.04.22.04.36v.74h-2.51v.06c0,.13.03.22.08.27.04.04.14.08.37.08h2.03v.64h-2.09.01ZM-220.88-11.36v-.14c0-.08-.01-.14-.04-.17-.02-.02-.07-.04-.19-.04h-1.09c-.23,0-.33.04-.37.08-.05.05-.08.14-.08.26h1.78Z"/>
      <path class="st2" d="M-249.28-13.22h-.74v.91h0v.64h0v.86c0,.09,0,.17-.02.23-.01.05-.03.09-.06.13s-.07.05-.13.07c-.06,0-.14.02-.23.02h-1.15c-.09,0-.17,0-.23-.02-.05,0-.09-.04-.13-.07-.03-.03-.05-.07-.06-.13-.01-.06-.02-.14-.02-.23v-.41c0-.09,0-.17.02-.23.01-.05.03-.11.06-.14s.07-.05.13-.07c.06,0,.14-.02.23-.02h1.27v-.64h-1.33c-.21,0-.39.02-.53.05-.15.03-.26.09-.35.18-.09.08-.16.18-.19.3-.04.12-.05.26-.05.43v.65c0,.17.02.32.05.43.04.13.11.23.19.3.08.08.21.14.36.17.14.03.32.05.53.05h1.27c.21,0,.38-.02.53-.05s.26-.09.36-.17c.09-.08.16-.18.19-.3.04-.12.05-.26.05-.43v-2.54l-.02.02h0Z"/>
    </g>
    <g>
      <path class="st2" d="M-253.24-38.68c0,.49.17.9.5,1.24s.75.5,1.24.5h6.97c.48,0,.9-.17,1.24-.5s.5-.75.5-1.24v-5.22c0-.48-.17-.89-.5-1.23s-.75-.5-1.24-.5h-6.97v-5.23h12.19c.71,0,1.4.14,2.04.42s1.19.65,1.65,1.12c.46.46.84,1.02,1.11,1.66.28.64.42,1.32.42,2.04v8.71c0,.72-.14,1.4-.42,2.04-.28.64-.65,1.19-1.11,1.65-.46.46-1.01.83-1.65,1.11-.63.28-1.31.42-2.04.42h-17.4c-.71,0-1.4-.15-2.04-.42-.64-.28-1.19-.65-1.65-1.12-.46-.46-.83-1.02-1.11-1.66-.27-.64-.42-1.32-.42-2.04v-20.89h8.7v19.14h-.01Z"/>
      <path class="st2" d="M-221.91-45.69h-8.7v-5.27h8.7v5.27ZM-230.59-44.59h8.7v12.9h-8.7v-12.9Z"/>
    </g>
    <path class="st2" d="M-249.4-21.77c0,.23-.11.44-.33.6-.22.17-.48.24-.8.24h-4.62c-.32,0-.59-.08-.8-.24-.22-.16-.33-.37-.33-.6v-5.92h-5.65v6.76c0,.35.09.68.27,1s.42.58.72.81.66.41,1.07.55.85.2,1.32.2h2.88v3.1h5.65v-3.1h2.87c.46,0,.9-.06,1.32-.2.41-.14.77-.32,1.07-.55.3-.23.55-.49.72-.81.18-.32.27-.64.27-1v-6.76h-5.65v5.92h-.01Z"/>
    <path class="st2" d="M-223.96-25.38c0-.34-.09-.65-.27-.96-.18-.29-.42-.56-.72-.78s-.66-.39-1.07-.53c-.42-.13-.86-.2-1.32-.2h-11.31v2.45h7.92c.32,0,.59.08.8.24.22.16.33.35.33.58v.28h-9c-.47,0-.9.06-1.32.2s-.78.3-1.07.53c-.3.22-.55.47-.72.78-.18.3-.27.62-.27.96v4.08c0,.34.09.65.27.96.18.29.42.56.72.77.3.22.66.39,1.07.53.41.13.85.2,1.32.2h7.92v-2.45h-4.53c-.32,0-.59-.07-.81-.23s-.33-.35-.33-.58v-2.44c0-.23.11-.42.33-.58s.48-.24.81-.24h4.53c.32,0,.59.07.8.24.15.11.23.22.28.36v2.37h.04v3.55h5.65v-6.51c0-.13-.02-.25-.04-.38,0,0,0-3.19,0-3.19Z"/>
    <path class="st2" d="M-214.3-24.32h10.75v-3.38h-14.71c-.46,0-.91.08-1.32.27-.42.18-.78.42-1.07.72-.3.29-.55.65-.72,1.07-.18.41-.27.85-.27,1.32v1.12c0,.46.09.9.27,1.32.18.41.42.77.72,1.07s.66.54,1.07.71.86.27,1.32.27h7.35c.17,0,.3.05.41.16s.16.23.16.4-.05.29-.16.4-.24.16-.41.16h-10.75v3.38h14.71c.47,0,.9-.09,1.32-.27.41-.18.77-.42,1.07-.71.3-.3.55-.65.72-1.07.18-.41.27-.85.27-1.31v-1.12c0-.46-.09-.9-.27-1.31s-.42-.77-.72-1.07-.65-.54-1.07-.72c-.41-.18-.85-.27-1.32-.27h-7.35c-.17,0-.3-.05-.41-.16s-.16-.24-.16-.41.05-.29.16-.41c.11-.11.24-.16.41-.16h0Z"/>
    <path class="st2" d="M-269.2-59.46V-9.91c0,.53.81.53.81,0v-49.55c0-.53-.81-.53-.81,0h0Z"/>
    <path class="st2" d="M-284.16-40.16c-5.65,0-10.27-4.6-10.27-10.25s4.6-10.25,10.27-10.25,10.25,4.6,10.25,10.25-4.6,10.25-10.25,10.25h0ZM-284.16-60.3c-5.44,0-9.88,4.43-9.88,9.88s4.43,9.88,9.88,9.88,9.88-4.43,9.88-9.88-4.43-9.88-9.88-9.88h0Z"/>
    <path class="st2" d="M-289.29-9.39c-3.85,0-7.46-1.49-10.17-4.21-2.72-2.72-4.21-6.34-4.21-10.17s1.49-7.46,4.21-10.17h0c2.72-2.72,6.34-4.21,10.17-4.21s7.46,1.49,10.17,4.21c2.72,2.72,4.21,6.34,4.21,10.17s-1.49,7.46-4.21,10.17c-2.72,2.72-6.33,4.21-10.17,4.21h0ZM-289.29-37.76c-3.73,0-7.24,1.45-9.88,4.1h0c-2.64,2.64-4.09,6.15-4.09,9.88s1.45,7.24,4.09,9.88,6.15,4.1,9.88,4.1,7.24-1.45,9.88-4.1c2.64-2.64,4.1-6.15,4.1-9.88s-1.45-7.24-4.1-9.88c-2.64-2.64-6.15-4.1-9.88-4.1Z"/>
    <path class="st1" d="M-279.7-43.86l-.41-1.18.45-.38,1.09.61.38-.46-.7-1.03.34-.48,1.21.32.25-.54-.95-.81.2-.56h1.25l.09-.6-1.12-.55.05-.58,1.2-.35-.05-.59-1.23-.23-.09-.58,1.07-.64-.2-.55-1.24.08-.24-.54.87-.89-.34-.48-1.19.41-.38-.45.61-1.09-.45-.38-1.03.7-.48-.34.32-1.22-.54-.24-.82.95-.55-.21-.02-1.25-.58-.11-.55,1.12-.59-.05-.35-1.21-.59.05-.23,1.23-.58.11-.64-1.08-.56.21.09,1.25-.54.24-.89-.87-.48.34.41,1.19-.45.38-1.09-.61-.38.45.7,1.04-.34.47-1.22-.3-.24.54.95.81-.21.56-1.25.02-.11.58,1.12.55-.05.58-1.21.34.05.59,1.23.24.11.58-1.07.64.21.56,1.25-.09.24.54-.87.89.34.49,1.19-.41.38.45-.61,1.09.45.38,1.03-.7.47.34-.3,1.21.54.25.82-.95.55.2.02,1.25.58.11.55-1.12.59.05.34,1.2.59-.05.24-1.23.58-.11.64,1.07.56-.2-.09-1.25.54-.25.89.87.49-.35v.02h-.01ZM-280.88-45.95l-2.13-3.35c.27-.35.4-.81.33-1.25l3.38-2.14c1.12,2.33.46,5.16-1.59,6.75h.01ZM-279.95-53.73l-3.37,2.13c-.38-.27-.86-.38-1.31-.27l-2.13-3.35c2.33-1.19,5.19-.55,6.81,1.49h.01ZM-287.78-54.55l2.15,3.4c-.21.34-.28.76-.21,1.16l-3.37,2.14c-1.12-2.29-.53-5.07,1.43-6.69h0ZM-288.56-46.83l3.38-2.14c.32.22.7.32,1.09.27l2.16,3.4c-2.28,1.08-5.04.44-6.64-1.52h0Z"/>
    <path class="st1" d="M-295.59-36.28l1.08-.68.48.29-.22,1.22.51.24.74-1.05.56.08.26,1.22.57.02.28-1.25.55-.14.7,1.02.54-.2-.22-1.26.46-.34,1.05.67.41-.39-.68-1.08.29-.48,1.22.22.23-.51-1.05-.74.08-.56,1.21-.26.02-.57-1.24-.28-.14-.55,1.02-.7-.2-.54-1.26.22-.34-.45.67-1.04-.39-.41-1.08.68-.49-.29.22-1.22-.51-.23-.74,1.05-.57-.08-.26-1.22-.57-.02-.27,1.25-.55.14-.71-1.02-.54.2.22,1.26-.45.34-1.03-.67-.42.39.69,1.08-.29.48-1.22-.22-.24.51,1.05.74-.08.56-1.22.27-.02.57,1.25.28.14.55-1.02.7.2.54,1.26-.22.34.46-.67,1.04.39.41v-.03h0ZM-290.17-37.86c-1.06.74-2.49.76-3.56.04l1.09-1.16c.41.18.88.18,1.29,0l1.18,1.11h0ZM-289.32-38.74l-1.17-1.1c.18-.43.16-.92-.06-1.34l1.09-1.16c.8,1.05.85,2.5.14,3.6h0ZM-290.37-43.15l-1.12,1.19c-.38-.12-.8-.09-1.17.07l-1.17-1.1c1.02-.74,2.39-.79,3.46-.16h0ZM-294.66-42.1l1.18,1.1c-.14.36-.14.77,0,1.12l-1.12,1.19c-.67-1.02-.7-2.37-.06-3.41h.01Z"/>
    <path class="st1" d="M-283.77-13.08l-.25-1.42.55-.3,1.07.86.39-.29-.48-1.34.48-.39,1.21.66.34-.37-.71-1.24.41-.47,1.3.44.26-.41-.92-1.1.33-.54,1.36.21.18-.45-1.09-.92.22-.59,1.37-.02.11-.48-1.23-.72.12-.62,1.34-.26.02-.49-1.34-.49v-.63l1.29-.5-.07-.48-1.4-.25-.11-.63,1.17-.71-.15-.47h-1.42l-.21-.6,1.03-.91-.23-.44-1.4.24-.3-.56.85-1.08-.3-.39-1.33.48-.4-.49.66-1.21-.37-.34-1.23.71-.47-.42.44-1.31-.42-.27-1.08.92-.55-.34.21-1.37-.45-.19-.91,1.09-.59-.23-.03-1.38-.48-.12-.7,1.24-.62-.13-.27-1.36-.48-.02-.49,1.33h-.63l-.5-1.3-.48.06-.24,1.41-.62.09-.72-1.19-.46.15v1.43l-.6.21-.9-1.04-.43.22.24,1.41-.55.3-1.07-.87-.39.3.49,1.34-.49.4-1.21-.67-.34.37.71,1.24-.41.47-1.3-.44-.26.42.91,1.09-.32.55-1.36-.21-.19.46,1.09.91-.22.6-1.38.02-.11.48,1.23.71-.12.62-1.34.27-.02.49,1.33.49v.63l-1.28.5.06.49,1.41.25.11.63-1.17.71.15.47h1.42l.21.61-1.03.91.23.44,1.4-.24.3.55-.86,1.08.3.4,1.33-.48.4.49-.65,1.21.37.34,1.23-.7.47.42-.43,1.31.41.26,1.08-.91.54.34-.2,1.37.45.19.91-1.09.59.23.04,1.39.48.11.7-1.23.62.13.27,1.36.48.02.48-1.33h.63l.5,1.3.49-.07.24-1.4.62-.11.71,1.19.47-.15v-1.43l.59-.2.91,1.04.43-.22.02-.05h0ZM-280.71-27.32c1.75,4.44-.05,9.52-4.22,11.8l-3.41-7.19c.32-.32.49-.76.47-1.2l7.17-3.4h0ZM-281.23-28.42l-7.14,3.38c-.35-.32-.81-.47-1.27-.42l-3.44-7.21c4.41-1.81,9.53.03,11.85,4.24h0ZM-294.17-32.13l3.45,7.26c-.25.32-.38.71-.35,1.12l-7.13,3.39c-1.78-4.39-.04-9.45,4.03-11.77h0ZM-297.68-19.25l7.14-3.4c.29.25.67.4,1.06.4l3.45,7.25c-4.35,1.68-9.34-.13-11.65-4.23h0Z"/>
  </g>
  <g>
    <path class="st5" d="M-118.49,249.66"/>
    <path class="st5" d="M-117.58,246.81"/>
    <path class="st5" d="M-116.62,242.6"/>
  </g>
  <g>
    <g>
      <path class="st2" d="M-252.16-108.64c0,.48.17.88.49,1.21.33.33.73.5,1.21.5h6.82c.48,0,.88-.17,1.21-.49.33-.33.49-.73.49-1.21v-5.11c0-.47-.16-.88-.49-1.21-.33-.33-.73-.5-1.21-.5h-6.82v-5.13h11.93c.7,0,1.37.13,1.99.41.62.27,1.16.64,1.62,1.1s.82.99,1.09,1.62c.27.63.41,1.29.41,2v8.53c0,.7-.13,1.37-.41,2-.27.62-.64,1.16-1.09,1.62-.45.45-.99.82-1.62,1.09-.62.27-1.29.41-1.99.41h-17.03c-.7,0-1.37-.14-1.99-.41s-1.16-.64-1.62-1.1-.82-.99-1.09-1.62c-.27-.63-.41-1.29-.41-2v-20.45h8.51v18.74h0Z"/>
      <path class="st2" d="M-221.5-115.5h-8.51v-5.16h8.51v5.16ZM-230.01-114.43h8.51v12.63h-8.51v-12.63Z"/>
      <path class="st2" d="M-248.15-92.07c0,.23-.11.43-.32.59s-.47.24-.78.24h-4.49c-.31,0-.57-.08-.78-.24s-.32-.36-.32-.59v-5.79h-5.5v6.62c0,.34.09.67.26.97.18.3.41.57.7.79s.64.4,1.04.53.83.2,1.29.2h2.8v3.04h5.49v-3.04h2.8c.45,0,.88-.07,1.29-.2.4-.13.75-.31,1.04-.53s.53-.49.71-.79c.17-.31.26-.63.26-.97v-6.62h-5.5v5.79h.01,0Z"/>
      <path class="st2" d="M-223.4-95.61c0-.33-.09-.64-.26-.93s-.41-.55-.7-.76c-.3-.21-.64-.38-1.05-.51-.4-.13-.83-.19-1.29-.19h-11v2.4h7.7c.31,0,.57.08.78.23s.32.34.32.56v.28h-8.76c-.45,0-.88.06-1.29.19-.4.13-.75.3-1.05.51-.29.21-.53.47-.7.76-.18.29-.27.6-.27.93v3.99c0,.33.09.64.27.94.17.29.41.54.7.76.29.22.64.38,1.05.51.4.13.83.19,1.29.19h7.7v-2.4h-4.4c-.31,0-.57-.07-.78-.23-.21-.15-.32-.34-.32-.57v-2.39c0-.22.1-.41.32-.56.21-.16.47-.23.78-.23h4.4c.31,0,.57.08.78.23.14.1.23.22.28.35v2.33h.04v3.47h5.5v-6.38c0-.13-.02-.25-.04-.37v-3.1h0Z"/>
      <path class="st2" d="M-214-94.57h10.45v-3.31h-14.31c-.45,0-.89.09-1.29.26-.4.18-.75.41-1.04.71-.3.29-.53.64-.71,1.05-.18.4-.26.83-.26,1.29v1.11c0,.45.09.89.26,1.29s.41.75.71,1.05c.29.29.64.53,1.04.7.4.18.83.27,1.29.27h7.15c.16,0,.3.05.4.15s.16.23.16.39-.05.29-.16.39c-.1.1-.23.15-.4.15h-10.45v3.31h14.31c.46,0,.88-.09,1.29-.27.4-.18.75-.41,1.04-.7.3-.29.53-.64.71-1.05.18-.4.26-.83.26-1.29v-1.1c0-.46-.09-.88-.26-1.29-.18-.4-.41-.75-.71-1.05-.29-.29-.64-.53-1.04-.7s-.83-.26-1.29-.26h-7.15c-.16,0-.29-.05-.4-.16-.1-.1-.15-.23-.15-.4,0-.16.05-.29.15-.4.1-.1.24-.15.4-.15h0Z"/>
    </g>
    <path class="st2" d="M-267.52-129.61v51.96c0,.55.85.55.85,0v-51.96c0-.55-.85-.55-.85,0h0Z"/>
    <path class="st2" d="M-283.22-109.38c-5.93,0-10.76-4.83-10.76-10.76s4.83-10.76,10.76-10.76,10.76,4.83,10.76,10.76-4.83,10.76-10.76,10.76h0ZM-283.22-130.49c-5.71,0-10.36,4.65-10.36,10.36s4.65,10.36,10.36,10.36,10.36-4.65,10.36-10.36-4.65-10.36-10.36-10.36h0Z"/>
    <path class="st2" d="M-288.58-77.12c-4.03,0-7.82-1.57-10.67-4.42s-4.42-6.64-4.42-10.67,1.57-7.82,4.42-10.67h0c2.85-2.85,6.64-4.42,10.67-4.42s7.82,1.57,10.67,4.42,4.42,6.64,4.42,10.67-1.57,7.82-4.42,10.67-6.64,4.42-10.67,4.42ZM-288.58-106.86c-3.91,0-7.59,1.52-10.36,4.29h0c-2.77,2.77-4.29,6.45-4.29,10.36s1.52,7.59,4.29,10.36c2.77,2.77,6.45,4.29,10.36,4.29s7.59-1.52,10.36-4.29c2.77-2.77,4.29-6.45,4.29-10.36s-1.52-7.59-4.29-10.36-6.44-4.29-10.36-4.29Z"/>
    <path class="st1" d="M-278.55-113.25l-.43-1.24.47-.39,1.14.64.4-.48-.73-1.08.35-.51,1.27.33.26-.56-.99-.85.21-.58h1.31l.1-.62-1.18-.57.06-.61,1.26-.36-.05-.62-1.29-.24-.1-.61,1.12-.67-.21-.58-1.31.09-.26-.56.91-.94-.35-.51-1.24.43-.39-.47.64-1.15-.48-.39-1.08.74-.51-.35.33-1.27-.56-.26-.85.99-.58-.22-.02-1.31-.61-.11-.57,1.18-.61-.05-.36-1.27-.62.06-.24,1.29-.6.11-.68-1.13-.58.22.1,1.31-.56.26-.94-.91-.51.35.43,1.24-.47.39-1.15-.64-.39.47.74,1.09-.35.5-1.27-.32-.26.56.99.85-.22.58-1.31.02-.11.61,1.18.57-.05.61-1.27.35.06.62,1.29.25.11.6-1.13.67.22.58,1.31-.1.26.56-.91.94.36.51,1.24-.43.39.47-.64,1.14.48.4,1.08-.74.5.36-.32,1.27.56.26.85-.99.58.21.02,1.31.61.11.57-1.18.61.06.35,1.26.62-.05.25-1.29.6-.11.67,1.12.58-.21-.1-1.31.56-.26.94.92.51-.36h0ZM-279.77-115.45l-2.23-3.52c.29-.37.41-.85.34-1.31l3.55-2.25c1.18,2.44.49,5.41-1.66,7.08h0ZM-278.8-123.61l-3.53,2.24c-.39-.29-.9-.39-1.38-.28l-2.23-3.52c2.44-1.24,5.44-.58,7.14,1.56h0ZM-287.02-124.47l2.26,3.57c-.22.36-.3.8-.22,1.21l-3.54,2.25c-1.18-2.4-.55-5.32,1.5-7.02h0ZM-287.83-116.37l3.55-2.25c.33.23.74.33,1.14.28l2.26,3.57c-2.4,1.13-5.29.47-6.96-1.6h.01Z"/>
    <path class="st1" d="M-295.21-105.3l1.13-.72.51.31-.23,1.28.54.25.78-1.1.59.09.27,1.27.6.02.3-1.31.58-.14.74,1.07.56-.21-.23-1.32.48-.35,1.1.7.43-.41-.72-1.14.31-.5,1.28.23.24-.54-1.1-.78.09-.58,1.27-.28.02-.6-1.31-.3-.15-.58,1.07-.74-.21-.56-1.33.23-.35-.48.7-1.1-.41-.43-1.14.72-.51-.31.23-1.28-.54-.24-.78,1.1-.59-.09-.28-1.27-.6-.02-.29,1.31-.58.14-.75-1.07-.56.21.23,1.33-.48.35-1.08-.7-.44.41.72,1.14-.31.51-1.28-.23-.25.55,1.1.77-.09.58-1.27.28-.02.59,1.31.3.14.58-1.06.74.21.56,1.32-.23.35.48-.7,1.1.41.43.03-.02h0ZM-289.52-106.96c-1.11.78-2.61.79-3.74.04l1.15-1.21c.43.19.93.19,1.35,0l1.23,1.17h.01ZM-288.62-107.88l-1.23-1.15c.18-.45.16-.97-.07-1.41l1.15-1.21c.83,1.1.89,2.62.14,3.78h0ZM-289.72-112.51l-1.17,1.24c-.4-.13-.84-.1-1.23.08l-1.22-1.16c1.06-.77,2.5-.83,3.62-.16h0ZM-294.22-111.41l1.23,1.16c-.14.38-.14.8,0,1.18l-1.18,1.24c-.71-1.07-.74-2.49-.06-3.58h.01Z"/>
    <path class="st1" d="M-282.8-80.98l-.26-1.48.58-.31,1.13.9.41-.31-.51-1.41.51-.41,1.27.7.35-.38-.75-1.3.43-.5,1.37.47.28-.43-.97-1.16.34-.56,1.42.22.19-.48-1.14-.97.24-.62,1.44-.03.11-.51-1.29-.76.13-.65,1.41-.28.02-.52-1.41-.52v-.66l1.35-.53-.07-.51-1.46-.27-.11-.66,1.23-.75-.16-.49h-1.49l-.22-.63,1.08-.96-.24-.46-1.46.26-.32-.58.89-1.13-.31-.41-1.4.51-.42-.52.69-1.27-.38-.35-1.29.75-.5-.44.46-1.37-.44-.28-1.14.97-.57-.35.22-1.43-.48-.2-.96,1.14-.62-.24-.03-1.44-.51-.12-.74,1.3-.65-.13-.29-1.42-.51-.02-.51,1.4h-.66l-.53-1.37-.51.07-.26,1.48-.66.1-.76-1.24-.49.16v1.5l-.62.22-.95-1.09-.45.24.26,1.48-.57.32-1.13-.91-.41.31.52,1.41-.51.42-1.27-.7-.35.38.75,1.31-.43.49-1.37-.47-.28.44.96,1.15-.33.57-1.43-.22-.2.48,1.14.96-.23.62-1.44.03-.11.51,1.29.75-.12.65-1.41.28-.02.52,1.4.52v.66l-1.35.53.06.51,1.47.27.11.66-1.23.75.16.49h1.49l.22.64-1.08.95.24.46,1.47-.25.32.58-.9,1.13.32.41,1.4-.51.41.52-.68,1.27.38.35,1.29-.74.5.44-.45,1.37.43.28,1.14-.96.57.35-.21,1.43.47.2.96-1.14.62.24.04,1.45.51.11.74-1.29.65.13.29,1.42.51.03.51-1.4h.66l.53,1.37.51-.07.26-1.47.65-.11.75,1.24.49-.15v-1.5l.62-.21.96,1.09.45-.24-.02-.07h0ZM-279.59-95.91c1.84,4.66-.06,9.99-4.43,12.37l-3.58-7.54c.34-.33.52-.79.5-1.26l7.51-3.57ZM-280.15-97.06l-7.49,3.55c-.36-.33-.85-.49-1.33-.44l-3.6-7.56c4.63-1.89,9.99.03,12.42,4.45h0ZM-293.72-100.95l3.62,7.61c-.26.33-.4.75-.37,1.17l-7.48,3.56c-1.87-4.61-.04-9.91,4.23-12.34h0ZM-297.39-87.45l7.49-3.57c.31.26.7.41,1.11.41l3.61,7.6c-4.56,1.77-9.8-.14-12.21-4.45h0Z"/>
    <g>
      <rect class="st2" x="-212.11" y="-78.56" width="1.23" height="1.28"/>
      <rect class="st2" x="-207.04" y="-78.56" width="1.23" height="1.28"/>
      <rect class="st2" x="-209.7" y="-83.62" width="1.22" height="6.34"/>
      <rect class="st2" x="-204.77" y="-83.62" width="1.22" height="6.34"/>
      <path class="st2" d="M-246.09-77.28c-.32,0-.59-.03-.81-.09s-.4-.17-.54-.31-.24-.33-.3-.56c-.06-.22-.09-.48-.09-.79v-1.19c0-.3.03-.57.09-.79.06-.23.16-.41.3-.56.14-.14.32-.25.54-.32.22-.06.49-.1.81-.1h1.97c.24,0,.44.02.6.07.17.05.3.14.4.25.1.12.17.27.21.46.04.18.06.4.06.65v1.34h-3.83v.11c0,.23.04.4.13.5.06.07.21.15.56.15h3.09v1.16h-3.19v.02h0ZM-243.98-80.27v-.24c0-.15-.02-.25-.07-.3-.03-.04-.11-.08-.28-.08h-1.67c-.35,0-.5.08-.56.15-.09.09-.13.25-.13.48h2.72-.01Z"/>
      <polygon class="st2" points="-252.09 -77.28 -254.45 -81.99 -253.19 -81.99 -251.45 -78.67 -249.69 -81.99 -248.45 -81.99 -250.81 -77.28 -252.09 -77.28"/>
      <path class="st2" d="M-241.34-80.27c0-.32.04-.59.11-.8.07-.22.19-.4.36-.54.16-.14.38-.24.64-.29.25-.06.55-.09.9-.09h1.35c.35,0,.65.03.9.09.26.06.47.16.64.29.16.14.28.32.36.54.07.22.11.49.11.8v2.98h-1.32v-2.89c0-.15-.02-.27-.05-.36-.03-.08-.08-.15-.14-.2-.07-.05-.16-.08-.27-.1-.13-.02-.29-.03-.47-.03h-.84c-.19,0-.35,0-.48.03-.11.02-.21.05-.27.1-.07.05-.11.11-.14.2s-.05.21-.05.36v2.89h-1.32v-2.98h-.02Z"/>
      <path class="st2" d="M-230.23-77.28v-1.13h3.77c.17,0,.24-.04.28-.07.04-.04.07-.12.07-.24v-.09c0-.09-.02-.15-.07-.19-.03-.03-.11-.07-.27-.07h-2.52c-.44,0-.76-.1-.95-.31-.19-.21-.29-.51-.29-.89v-.5c0-.18.02-.34.06-.49s.12-.29.22-.39c.1-.11.23-.19.39-.25.16-.05.35-.08.58-.08h3.87v1.13h-3.59c-.17,0-.24.04-.27.07-.03.04-.07.18-.07.3v.04c0,.09.02.15.07.2.03.03.1.07.27.07h2.53c.44,0,.76.11.95.31.19.21.29.5.29.88v.46c0,.19-.02.36-.06.51-.04.16-.12.29-.22.4s-.23.19-.39.25c-.16.05-.35.08-.58.08h-4.07Z"/>
      <path class="st2" d="M-258.61-77.28c-.32,0-.59-.03-.81-.09s-.4-.17-.54-.31-.24-.33-.3-.56c-.06-.22-.09-.48-.09-.79v-1.19c0-.3.03-.57.09-.79.06-.23.16-.41.3-.56.14-.14.32-.25.54-.32.22-.06.49-.1.81-.1h1.97c.24,0,.44.02.6.07.17.05.3.14.4.25.1.12.17.27.21.46.04.18.06.4.06.65v1.34h-3.83v.11c0,.23.04.4.13.5.06.07.21.15.56.15h3.09v1.16h-3.19v.02h0ZM-256.48-80.27v-.24c0-.15-.02-.25-.07-.3-.03-.04-.11-.08-.28-.08h-1.67c-.35,0-.5.08-.56.15-.09.09-.13.25-.13.48h2.72-.01Z"/>
      <polygon class="st2" points="-215.75 -77.28 -216.7 -80.57 -217.65 -77.28 -219.45 -77.28 -220.81 -81.99 -219.52 -81.99 -218.54 -78.6 -217.56 -81.99 -215.83 -81.99 -214.85 -78.6 -213.86 -81.99 -212.59 -81.99 -213.95 -77.28 -215.75 -77.28"/>
      <path class="st2" d="M-232.33-78.5c-.18,0-.33-.15-.33-.33v-2.08h1.26v-1.09h-1.26v-1.25h-1.22v1.25h-.77v1.09h.77v2.4c0,.65.52,1.18,1.17,1.22h1.35v-1.22h-.98.01Z"/>
    </g>
  </g>
  <g>
    <path class="st5" d="M199,249.66"/>
    <path class="st5" d="M199.91,246.81"/>
    <path class="st5" d="M200.87,242.6"/>
  </g>
  <g>
    <path class="st2" d="M-136.06-108.46v30.37c0,.32.49.32.49,0v-30.37c0-.32-.49-.32-.49,0"/>
    <path class="st2" d="M-144.13-96.65c-3.46,0-6.27-2.81-6.27-6.27s2.81-6.27,6.27-6.27,6.27,2.81,6.27,6.27-2.81,6.27-6.27,6.27M-144.13-108.95c-3.32,0-6.03,2.71-6.03,6.03s2.71,6.03,6.03,6.03,6.03-2.71,6.03-6.03-2.71-6.03-6.03-6.03"/>
    <path class="st2" d="M-147.26-77.85c-2.35,0-4.56-.92-6.22-2.57s-2.57-3.87-2.57-6.22.92-4.56,2.57-6.22,3.87-2.57,6.22-2.57,4.56.92,6.22,2.57,2.57,3.87,2.57,6.22-.92,4.56-2.57,6.22-3.87,2.57-6.22,2.57M-147.26-95.18c-2.28,0-4.43.89-6.04,2.5s-2.5,3.76-2.5,6.04.89,4.43,2.5,6.04,3.76,2.5,6.04,2.5,4.43-.89,6.04-2.5,2.5-3.76,2.5-6.04-.89-4.43-2.5-6.04-3.76-2.5-6.04-2.5"/>
    <path class="st1" d="M-141.41-98.9l-.26-.72.28-.23.67.37.24-.28-.43-.63.21-.3.74.2.15-.33-.58-.49.12-.34h.76l.06-.36-.69-.33.03-.36.73-.21-.03-.36-.75-.14-.06-.36.66-.39-.12-.34-.76.05-.15-.33.54-.55-.21-.3-.72.26-.23-.28.37-.67-.28-.23-.63.43-.3-.21.2-.74-.33-.15-.49.58-.34-.12v-.76l-.37-.06-.33.69-.36-.03-.21-.74-.36.03-.14.75-.35.06-.39-.66-.34.12.06.76-.33.15-.55-.54-.3.21.26.72-.28.23-.67-.37-.23.28.43.64-.21.29-.74-.19-.15.33.58.49-.12.34h-.76l-.06.37.69.33-.03.36-.74.21.03.36.75.14.06.35-.66.39.12.34.76-.06.15.33-.54.55.21.3.72-.26.23.28-.37.67.28.24.63-.43.29.21-.19.74.33.15.49-.58.34.12v.76l.37.06.33-.69.36.03.21.73.36-.03.14-.75.35-.06.39.66.34-.12-.06-.76.33-.15.55.54.3-.21h0ZM-142.12-100.18l-1.3-2.05c.16-.22.24-.49.2-.76l2.07-1.31c.69,1.42.29,3.15-.97,4.13M-141.56-104.94l-2.06,1.31c-.23-.16-.52-.23-.8-.16l-1.3-2.05c1.42-.72,3.17-.34,4.16.91M-146.34-105.44l1.32,2.08c-.13.21-.17.46-.13.7l-2.06,1.31c-.69-1.4-.32-3.1.87-4.09M-146.82-100.73l2.07-1.32c.2.13.43.2.67.16l1.32,2.08c-1.4.66-3.09.27-4.06-.93"/>
    <path class="st1" d="M-151.12-94.27l.66-.41.3.17-.13.74.32.14.45-.64.34.05.15.74h.35l.17-.75.34-.08.43.63.33-.12-.13-.77.28-.21.64.41.26-.24-.42-.66.17-.3.74.13.14-.32-.64-.45.05-.34.74-.16v-.35l-.75-.17-.08-.34.63-.43-.12-.33-.77.13-.21-.28.41-.64-.24-.26-.66.42-.3-.19.13-.74-.31-.14-.45.64-.34-.05-.16-.74h-.35l-.16.75-.34.08-.43-.63-.33.12.13.77-.28.21-.63-.41-.26.24.42.66-.17.3-.75-.13-.14.32.64.45-.05.34-.74.16v.34l.75.17.08.34-.62.43.12.33.77-.13.21.28-.41.64.24.26h-.02,0ZM-147.8-95.24c-.65.45-1.52.46-2.18.02l.67-.71c.25.11.54.11.79,0l.72.68h0ZM-147.29-95.78l-.71-.67c.1-.27.09-.57-.04-.82l.67-.71c.48.64.51,1.52.08,2.2M-147.93-98.47l-.69.72c-.24-.07-.49-.06-.72.04l-.71-.67c.62-.45,1.46-.48,2.11-.09M-150.54-97.83l.72.68c-.08.23-.08.46,0,.69l-.69.72c-.41-.63-.43-1.45-.04-2.09"/>
    <path class="st1" d="M-143.89-80.1l-.15-.86.34-.19.66.52.24-.19-.3-.82.3-.24.74.4.21-.23-.43-.76.26-.29.79.27.16-.26-.57-.67.2-.33.83.13.11-.28-.67-.57.13-.36h.83l.06-.31-.75-.44.07-.38.82-.16v-.3l-.8-.3v-.39l.79-.31-.04-.3-.85-.15-.06-.38.72-.43-.09-.29h-.86l-.12-.37.63-.56-.14-.27-.85.14-.19-.34.52-.66-.19-.24-.81.3-.25-.3.4-.74-.23-.21-.75.43-.29-.26.27-.8-.26-.16-.66.57-.33-.21.12-.83-.28-.11-.56.67-.36-.14-.02-.84-.3-.07-.43.76-.38-.07-.16-.83h-.3l-.3.8h-.38l-.31-.79-.3.04-.15.86-.38.06-.44-.72-.29.09v.87l-.36.12-.56-.64-.27.13.14.86-.33.19-.66-.54-.24.19.3.82-.3.25-.74-.41-.21.23.43.76-.26.29-.79-.27-.16.26.56.67-.2.33-.83-.13-.11.28.67.56-.13.36-.84.02-.06.3.75.44-.07.38-.82.16v.3l.8.3v.39l-.78.31.04.3.85.15.06.38-.72.43.09.29h.86l.12.37-.63.56.13.27.85-.14.19.34-.52.66.19.24.82-.3.24.3-.4.74.23.21.75-.43.29.26-.27.8.25.16.66-.56.33.21-.12.83.28.11.56-.67.36.13.02.84.3.06.43-.75.38.07.16.82.3.02.3-.82h.39l.31.79.3-.04.14-.85.38-.06.44.72.29-.09v-.87l.36-.12.56.64.27-.13h.03,0ZM-142.02-88.8c1.07,2.72-.03,5.81-2.58,7.2l-2.09-4.39c.2-.2.3-.46.29-.73l4.37-2.08h.01ZM-142.34-89.47l-4.36,2.07c-.21-.2-.49-.29-.77-.26l-2.1-4.4c2.7-1.1,5.83.02,7.24,2.59M-150.25-91.74l2.11,4.44c-.15.2-.23.44-.22.68l-4.35,2.07c-1.09-2.69-.02-5.77,2.46-7.19M-152.39-83.87l4.36-2.08c.17.15.41.24.65.24l2.1,4.43c-2.66,1.03-5.71-.08-7.11-2.59"/>
    <path class="st2" d="M-120.54-105.02c1.43,0,2.45.34,3.05,1.01.61.67.91,1.69.91,3.05v1.18c0,1.38-.44,2.42-1.33,3.12.96.66,1.44,1.71,1.44,3.17v1.42c0,.66-.06,1.25-.19,1.77s-.33.97-.62,1.34-.66.65-1.13.84-1.05.3-1.75.3h-12.37c-.41,0-.63-.25-.63-.74v-15.73c0-.49.21-.74.63-.74h11.99ZM-129.98-97.86h8.53c.69,0,1.16-.12,1.42-.37.25-.25.37-.61.37-1.08v-.83c0-.5-.12-.89-.36-1.12-.25-.24-.64-.36-1.17-.36h-8.51c-.19,0-.27.1-.27.32v3.44h-.01ZM-129.98-95.19v3.66c0,.22.09.32.27.32h8.53c.56,0,.95-.12,1.18-.36.24-.24.35-.62.35-1.14v-.94c0-.5-.12-.9-.38-1.15s-.73-.39-1.43-.39h-8.53.01Z"/>
    <path class="st2" d="M-101.93-105.02c1.05,0,1.96.12,2.7.36.74.24,1.35.62,1.81,1.13s.8,1.18,1.01,2.01.31,1.82.31,2.99v4.23c0,1.18-.1,2.18-.31,3.01s-.55,1.5-1.01,2.02-1.07.89-1.81,1.12c-.74.23-1.65.34-2.7.34h-6.43c-1.05,0-1.95-.11-2.69-.34s-1.34-.6-1.8-1.12c-.46-.51-.8-1.18-1.02-2.02-.22-.82-.32-1.83-.32-3.01v-4.23c0-1.18.1-2.18.32-2.99.22-.82.56-1.48,1.02-2.01.46-.51,1.06-.9,1.8-1.13.73-.24,1.63-.36,2.69-.36h6.43ZM-111.01-94.58c0,.64.04,1.17.13,1.61.09.43.24.78.44,1.03.21.26.49.43.84.55.35.1.8.16,1.34.16h6.19c.55,0,.99-.05,1.34-.16.35-.1.64-.29.84-.55.21-.26.36-.6.44-1.03.09-.43.13-.97.13-1.61v-3.68c0-.64-.04-1.17-.13-1.61-.09-.43-.24-.78-.44-1.03-.21-.26-.49-.43-.84-.55-.35-.1-.8-.16-1.34-.16h-6.19c-.55,0-.99.05-1.34.16-.35.1-.64.29-.84.55-.21.26-.36.6-.44,1.03-.09.43-.13.97-.13,1.61v3.68Z"/>
    <path class="st2" d="M-81.93-105.02c1.05,0,1.96.12,2.7.36.74.24,1.35.62,1.81,1.13s.8,1.18,1.01,2.01.31,1.82.31,2.99v4.23c0,1.18-.1,2.18-.31,3.01-.21.82-.55,1.5-1.01,2.02s-1.07.89-1.81,1.12c-.74.23-1.64.34-2.7.34h-6.43c-1.05,0-1.95-.11-2.69-.34s-1.34-.6-1.8-1.12c-.46-.51-.8-1.18-1.02-2.02-.22-.82-.32-1.83-.32-3.01v-4.23c0-1.18.1-2.18.32-2.99.22-.82.56-1.48,1.02-2.01.46-.51,1.06-.9,1.8-1.13.73-.24,1.63-.36,2.69-.36h6.43ZM-91.01-94.58c0,.64.04,1.17.13,1.61.09.43.24.78.44,1.03.21.26.49.43.84.55.35.1.8.16,1.34.16h6.19c.55,0,.99-.05,1.34-.16.35-.1.64-.29.84-.55s.36-.6.44-1.03c.09-.43.13-.97.13-1.61v-3.68c0-.64-.04-1.17-.13-1.61s-.24-.78-.44-1.03c-.21-.26-.49-.43-.84-.55-.35-.1-.8-.16-1.34-.16h-6.19c-.55,0-.99.05-1.34.16-.35.1-.64.29-.84.55-.21.26-.36.6-.44,1.03-.09.43-.13.97-.13,1.61v3.68Z"/>
    <path class="st2" d="M-69.82-105.02c.33,0,.61.02.83.05s.41.1.59.21c.16.1.33.26.48.44s.33.44.52.75l7.75,11.99c.05.11.14.17.27.17h.19c.11,0,.16-.08.16-.25v-12.82c0-.36.15-.55.46-.55h2.18c.31,0,.45.19.45.55v14.1c0,1-.15,1.68-.45,2.03-.31.35-.78.52-1.42.52h-1.79c-.32,0-.59-.02-.8-.05s-.4-.1-.58-.2c-.16-.1-.33-.24-.49-.43-.16-.19-.34-.44-.56-.77l-7.77-11.99c-.08-.11-.17-.17-.27-.17h-.19c-.11,0-.16.08-.16.25v12.82c0,.36-.15.55-.46.55h-2.18c-.32,0-.48-.19-.48-.55v-14.1c0-1,.15-1.68.46-2.03.31-.35.78-.52,1.42-.52h1.83,0Z"/>
    <path class="st2" d="M-131.6-84.28c.11,0,.17.06.17.21v6.03c0,.13-.05.21-.17.21h-.84c-.11,0-.17-.06-.17-.21v-6.03c0-.13.06-.21.17-.21h.84Z"/>
    <path class="st2" d="M-129.01-84.28c.49,0,.61.07.91.55l2.89,4.49s.05.06.1.06h.07s.06-.03.06-.09v-4.8c0-.13.05-.21.17-.21h.81c.11,0,.17.06.17.21v5.27c0,.74-.23.96-.7.96h-.67c-.47,0-.59-.05-.91-.55l-2.9-4.49s-.05-.06-.1-.06h-.07s-.06.03-.06.09v4.8c0,.13-.05.21-.17.21h-.81c-.11,0-.17-.06-.17-.21v-5.27c0-.74.23-.96.7-.96h.69-.01Z"/>
    <path class="st2" d="M-116.86-84.28c.11,0,.17.06.17.21v.9c0,.13-.06.22-.17.22h-2.44v4.92c0,.13-.05.21-.17.21h-.84c-.11,0-.17-.06-.17-.21v-4.92h-2.44c-.11,0-.17-.07-.17-.22v-.9c0-.13.06-.21.17-.21h6.08-.01Z"/>
    <path class="st2" d="M-110.6-84.28c.11,0,.17.06.17.21v.87c0,.13-.06.21-.17.21h-3.4c-.81,0-1.04.29-1.04,1.25v.09h4.39c.11,0,.17.06.17.21v.73c0,.13-.05.21-.17.21h-4.39v.15c0,.97.23,1.25,1.04,1.25h3.4c.11,0,.17.06.17.21v.87c0,.13-.06.21-.17.21h-3.43c-1.57,0-2.18-.66-2.18-2.43v-1.58c0-1.76.61-2.43,2.18-2.43h3.43Z"/>
    <path class="st2" d="M-105.11-84.28c1.19,0,1.68.65,1.68,1.89v.52c0,1.05-.34,1.67-1.16,1.84l1.33,1.95c.05.06.04.23-.1.23h-1.01c-.13,0-.17-.04-.22-.12l-1.22-1.91h-2.51v1.83c0,.13-.05.21-.17.21h-.84c-.11,0-.17-.06-.17-.21v-5.95c0-.19.08-.28.24-.28h4.18ZM-108.33-81h2.98c.52,0,.72-.27.72-.81v-.38c0-.56-.2-.81-.72-.81h-2.88c-.07,0-.1.04-.1.11v1.91-.02h0Z"/>
    <path class="st2" d="M-101.46-84.28c.11,0,.17.06.17.21v6.03c0,.13-.05.21-.17.21h-.84c-.11,0-.17-.06-.17-.21v-6.03c0-.13.06-.21.17-.21h.84Z"/>
    <path class="st2" d="M-95.74-84.28c1.58,0,2.18.66,2.18,2.43v1.58c0,1.76-.6,2.43-2.18,2.43h-2.41c-1.57,0-2.18-.66-2.18-2.43v-1.58c0-1.76.61-2.43,2.18-2.43h2.41ZM-99.13-80.38c0,.97.24,1.25,1.04,1.25h2.32c.8,0,1.04-.29,1.04-1.25v-1.38c0-.97-.24-1.25-1.04-1.25h-2.32c-.8,0-1.04.29-1.04,1.25v1.38Z"/>
    <path class="st2" d="M-88.18-84.28c1.19,0,1.68.65,1.68,1.89v.52c0,1.05-.34,1.67-1.16,1.84l1.33,1.95c.05.06.04.23-.1.23h-1.01c-.13,0-.17-.04-.22-.12l-1.22-1.91h-2.51v1.83c0,.13-.05.21-.17.21h-.84c-.11,0-.17-.06-.17-.21v-5.95c0-.19.08-.28.24-.28h4.18ZM-91.4-81h2.98c.52,0,.72-.27.72-.81v-.38c0-.56-.2-.81-.72-.81h-2.88c-.07,0-.1.04-.1.11v1.91-.02h0Z"/>
  </g>
  <g>
    <path class="st5" d="M360.69,100.33"/>
    <path class="st5" d="M361.61,97.47"/>
    <path class="st5" d="M362.57,93.27"/>
  </g>
  <g>
    <g>
      <path class="st2" d="M-135.1,45.96l-4.03,7.48h-20.34c-.37,0-.71.24-.83.58l-.83,2.3-2.4,6.62-1.27,3.51-1.9-3.51-2.84-5.27.49-1.35.77-2.11c.13-.37-.14-.77-.54-.77h-2.99l-4.04-7.48h40.75,0Z"/>
      <path class="st4" d="M-156.73,67.02l-1.02,2.83,1.16.72c.76.47,1.75.12,2.05-.72l.44-1.21-.7-.43c-.49-.31-.7-.91-.5-1.46l.42-1.17c.27-.73,1.13-1.02,1.78-.63l.27.16,5.27,3.26-1.74,3.23-1.39,2.59-3.94,7.31c-.35.66-1.29.66-1.64,0l-1.49-2.76-1.13-2.09-.79-1.46h0l-3.71-6.88,2.2-6.1,2.4-6.62h18.11l-3.57,6.62h-9.48c-.76,0-1.43.47-1.69,1.19l-.04.1-1.27,3.52v-.02h0Z"/>
    </g>
    <path class="st2" d="M-131.95,48.86h10.78l-1.35,2.31h-2.85v9.41h-2.79v-9.41h-3.79v-2.31h0Z"/>
    <path class="st2" d="M-118.19,49.27c.32-.14.65-.26.99-.32s.66-.1.94-.12c.36-.04.79-.06,1.3-.07.51,0,1.05.04,1.58.14.54.1,1.07.27,1.58.51s.94.59,1.3,1.06c.35.45.61.98.81,1.59s.32,1.24.38,1.9.05,1.29,0,1.92-.17,1.18-.33,1.66c-.13.4-.29.76-.46,1.08s-.38.6-.6.84c-.24.25-.5.44-.8.61-.31.16-.66.31-1.07.41-.22.05-.5.1-.84.14-.34.04-.72.07-1.13.08-.41,0-.83,0-1.27-.02s-.87-.08-1.29-.16-.82-.2-1.19-.36c-.37-.15-.69-.35-.95-.58-.38-.34-.69-.76-.92-1.28s-.41-1.07-.53-1.63-.18-1.13-.2-1.68c-.02-.55,0-1.05.07-1.47.06-.38.14-.77.26-1.17.1-.4.26-.8.46-1.18.19-.38.46-.74.77-1.07s.71-.6,1.18-.81c0,0-.03-.02-.03-.02ZM-116.17,51.46c-.39.13-.71.31-.94.52-.25.22-.43.45-.57.73-.14.27-.24.55-.29.86s-.08.6-.08.91c0,.26,0,.52.02.81s.07.57.15.86c.09.29.23.55.41.83.18.27.43.5.75.72.2.13.44.24.7.31s.52.1.79.11c.27,0,.52,0,.78-.05s.48-.11.68-.2c.3-.13.54-.3.74-.49s.36-.39.48-.6.22-.44.28-.68.11-.47.14-.72c.02-.19.03-.45.02-.76,0-.31-.04-.63-.11-.96-.07-.34-.17-.66-.33-.97s-.36-.57-.63-.79c-.18-.14-.42-.27-.69-.35-.27-.09-.54-.15-.83-.18s-.55-.04-.82-.02c-.27.02-.48.05-.66.12,0,0,.01,0,.01,0Z"/>
    <path class="st2" d="M-108.27,48.86h2.8v7.08c0,.29.03.55.09.81s.16.48.32.69c.14.2.37.4.68.56.13.08.31.15.52.19.22.05.44.07.68.07s.47-.03.7-.08c.24-.05.44-.13.63-.24.29-.16.5-.37.65-.59s.26-.46.32-.73c.06-.26.09-.52.1-.79v-6.99h2.8v6.72c0,.44-.02.87-.05,1.3s-.12.83-.26,1.21-.34.75-.6,1.09c-.28.34-.65.65-1.12.9-.35.19-.81.35-1.39.45s-1.19.15-1.81.15-1.24-.05-1.81-.15c-.58-.1-1.05-.26-1.39-.46-.49-.29-.86-.61-1.12-.98s-.43-.77-.53-1.18c-.1-.41-.16-.84-.17-1.27s-.02-.86-.02-1.28v-6.49h.02,0Z"/>
    <path class="st2" d="M-87.2,48.86l-1.38,2.54h-2.8c-.31,0-.61.04-.91.11s-.58.19-.86.38c-.28.17-.51.44-.73.8-.13.25-.24.53-.31.89-.07.35-.1.72-.1,1.1s.04.76.12,1.13.19.7.36.98c.19.35.4.61.59.79.19.18.41.32.65.4s.5.13.79.14.63.02.99.02h3.2v2.44h-4.47c-.47,0-.9-.02-1.3-.06-.39-.04-.76-.13-1.11-.28-.34-.14-.66-.34-.94-.6s-.55-.61-.81-1.06c-.29-.49-.5-1.08-.65-1.74s-.23-1.35-.23-2.06.07-1.38.2-2.05.35-1.24.63-1.72c.29-.48.59-.86.94-1.15.35-.29.72-.5,1.1-.65.39-.14.79-.25,1.2-.29s.83-.07,1.24-.08h4.58Z"/>
    <path class="st2" d="M-86.55,48.86h2.8v4.53h4.12v-4.53h2.79v11.72h-2.79v-6.81l-1.37,2.14h-2.76v4.66h-2.8v-11.72h.01Z"/>
    <g>
      <path class="st2" d="M-133.13,63.92l-1.26,2.33h-3.43c-.28,0-.55.04-.83.11s-.53.19-.79.37c-.25.17-.47.42-.65.75-.13.24-.24.51-.31.84-.07.33-.1.68-.1,1.02s.03.7.1,1.02.16.6.31.83c.17.3.37.52.59.69.23.15.45.28.7.35.24.07.49.11.75.12h2.03v-1.94h-2.73v-2.3h5.3v6.54h-4.72c-.35,0-.71,0-1.09-.04s-.76-.1-1.13-.23c-.37-.12-.73-.32-1.07-.56-.34-.25-.64-.59-.89-1.04-.27-.45-.47-.98-.6-1.61s-.2-1.25-.2-1.91.06-1.28.19-1.9.33-1.15.58-1.6c.26-.46.56-.82.92-1.08s.73-.44,1.12-.56.78-.19,1.17-.2c.39-.02.76-.03,1.09-.03h4.95Z"/>
      <path class="st2" d="M-132.48,63.92h6.58c.27,0,.52.04.79.11.26.07.51.18.77.34s.5.39.73.69c.19.25.34.53.44.85s.17.64.2.96c.04.33.05.65.03.94-.02.31-.06.56-.11.79-.1.4-.27.75-.48,1.05s-.54.53-.97.73c-.28.13-.51.22-.7.24s-.38.04-.57.06l2.67,4h-2.99l-3.81-5.83v5.83h-2.57v-10.76h0ZM-129.91,68.56h2.76c.19,0,.38-.02.55-.05s.34-.09.48-.16c.15-.07.27-.19.36-.35.11-.19.17-.43.17-.7s-.04-.49-.13-.66c-.09-.17-.24-.3-.41-.38-.17-.08-.37-.13-.56-.16s-.39-.04-.57-.04h-2.64v2.51h0Z"/>
      <path class="st2" d="M-115.09,63.92l3.92,10.76h-2.71l-.74-1.95h-2.47l-1.26-2.13-1.55,4.08h-2.78l3.98-10.76h3.61ZM-118.28,70.41h2.9l-1.45-4.06-1.46,4.06h0Z"/>
      <path class="st2" d="M-111.37,63.92h2.72l3.03,8.44,3.1-8.44h2.67l-3.98,10.76h-3.68l-3.85-10.76h-.01Z"/>
      <path class="st2" d="M-96.82,63.92v10.76h-2.57v-10.76h2.57Z"/>
      <path class="st2" d="M-95.88,63.92h9.9l-1.24,2.12h-2.61v8.64h-2.56v-8.64h-3.48v-2.12h0Z"/>
      <path class="st2" d="M-86.15,63.92h2.95l2.32,3.39,2.12-3.39h3.02l-3.85,5.99v4.78h-2.56v-4.75l-3.99-6.02h-.01Z"/>
    </g>
    <g>
      <path class="st2" d="M-142.85,77.34l-.61,1.13h-1.24c-.13,0-.28.02-.4.05-.13.03-.26.09-.38.16-.12.08-.23.19-.32.36-.06.1-.1.24-.13.39-.03.15-.04.32-.04.49s.02.34.05.5.09.31.15.43c.09.15.17.27.27.35s.18.14.29.17c.1.04.23.06.35.06h1.86v1.08h-1.98c-.2,0-.4,0-.57-.03-.17-.02-.34-.06-.49-.12-.15-.06-.29-.15-.42-.27-.12-.11-.25-.27-.36-.47-.12-.22-.23-.47-.29-.77s-.1-.6-.1-.91.03-.61.09-.91.15-.55.28-.76.27-.38.42-.51c.15-.12.32-.23.49-.29s.35-.1.53-.12c.18-.02.37-.03.54-.03h2.02v.02h0Z"/>
      <path class="st2" d="M-141.46,77.53c.14-.06.29-.11.44-.14s.3-.05.42-.05c.15-.02.35-.03.57-.03s.46.02.7.06c.24.04.47.12.7.23s.42.27.57.47c.15.19.28.43.36.71.08.27.14.55.16.84s.02.57,0,.85c-.03.28-.07.52-.14.74-.06.17-.13.34-.2.48s-.16.27-.27.37-.23.19-.36.27-.3.13-.47.18c-.1.02-.23.04-.37.06s-.32.03-.5.03h-.56c-.19,0-.39-.04-.57-.07-.18-.04-.36-.09-.52-.16s-.31-.15-.42-.26c-.16-.14-.31-.34-.41-.56s-.18-.47-.24-.72c-.05-.25-.08-.5-.09-.75,0-.25,0-.46.03-.65.03-.16.06-.34.11-.52.05-.17.11-.35.2-.52.09-.17.2-.33.34-.47.14-.14.32-.27.52-.36h0v-.02h0ZM-140.57,78.5c-.17.06-.31.13-.42.24-.1.09-.19.2-.26.32-.06.12-.1.25-.13.38-.02.13-.03.27-.03.4,0,.11,0,.24.01.36,0,.12.03.26.07.38s.1.25.18.37.19.23.33.32c.09.06.19.1.31.13s.23.05.35.05.24,0,.35-.02.22-.05.3-.09c.13-.06.24-.13.33-.22s.16-.17.22-.27.09-.19.12-.3.05-.2.06-.32c0-.09.01-.19.01-.34,0-.13-.02-.28-.05-.42s-.08-.3-.14-.43c-.07-.14-.16-.26-.28-.35-.08-.06-.18-.11-.31-.15s-.24-.06-.37-.08c-.12,0-.25-.02-.36,0-.11,0-.22.02-.3.05h.01Z"/>
      <path class="st2" d="M-135.23,77.34l1.58,4.31v-4.31h1.14v5.2h-1.97l-1.48-4.2v4.2h-1.15v-5.2h1.88Z"/>
      <path class="st2" d="M-132.16,77.34h4.78l-.59,1.02h-1.26v4.17h-1.23v-4.17h-1.68v-1.02h-.01Z"/>
      <path class="st2" d="M-127.16,77.34h3.18c.12,0,.26.02.38.05s.25.08.37.16c.12.07.24.18.35.33.09.12.16.26.22.41s.08.31.1.47c.02.15.02.31.01.45,0,.14-.03.28-.05.38-.05.19-.13.36-.24.5s-.27.26-.47.35c-.13.06-.25.1-.34.11s-.18.02-.28.03l1.29,1.93h-1.45l-1.84-2.81v2.81h-1.24v-5.2.02h.01ZM-125.92,79.58h1.33c.09,0,.18,0,.27-.02.08-.02.16-.04.24-.08s.13-.09.17-.16c.05-.09.08-.2.08-.34s-.02-.24-.06-.32c-.05-.08-.11-.14-.19-.18s-.17-.06-.28-.08c-.09,0-.18-.02-.28-.02h-1.27v1.21h-.01Z"/>
      <path class="st2" d="M-118.77,77.34l1.89,5.2h-1.3l-.36-.94h-1.19l-.6-1.04-.75,1.97h-1.34l1.92-5.2h1.74ZM-120.3,80.47h1.4l-.7-1.96-.71,1.96Z"/>
      <path class="st2" d="M-112.37,77.34l-.61,1.13h-1.24c-.13,0-.28.02-.4.05-.13.03-.26.09-.38.16-.12.08-.23.19-.32.36-.06.1-.1.24-.13.39-.03.15-.04.32-.04.49s.02.34.05.5.09.31.15.43c.09.15.17.27.27.35s.18.14.29.17c.1.04.23.06.35.06h1.86v1.08h-1.98c-.2,0-.4,0-.57-.03-.17-.02-.34-.06-.49-.12-.15-.06-.29-.15-.42-.27-.12-.11-.25-.27-.36-.47-.12-.22-.23-.47-.29-.77s-.1-.6-.1-.91.03-.61.09-.91.15-.55.28-.76.27-.38.42-.51c.15-.12.32-.23.49-.29s.35-.1.53-.12c.18-.02.37-.03.54-.03h2.02v.02h0Z"/>
      <path class="st2" d="M-112.2,77.34h4.78l-.59,1.02h-1.26v4.17h-1.23v-4.17h-1.68v-1.02h-.01Z"/>
      <path class="st2" d="M-105.99,77.34v5.2h-1.24v-5.2h1.24Z"/>
      <path class="st2" d="M-103.57,77.34l1.58,4.31v-4.31h1.14v5.2h-1.97l-1.48-4.2v4.2h-1.15v-5.2h1.88Z"/>
      <path class="st2" d="M-95.64,77.34l-.6,1.12h-1.65c-.13,0-.27.02-.4.05s-.26.09-.38.17-.23.2-.32.36c-.06.11-.11.25-.14.41s-.05.33-.05.49.02.34.05.49c.03.16.08.3.14.4.08.14.17.26.29.33.1.07.22.13.34.16.11.03.24.05.36.06s.25,0,.37,0h.6v-.93h-1.32v-1.11h2.56v3.16h-2.28c-.16,0-.34,0-.52-.02-.18,0-.37-.05-.54-.11s-.35-.15-.51-.27c-.16-.12-.31-.29-.43-.5-.13-.22-.23-.48-.3-.78s-.1-.6-.1-.92.03-.61.09-.91.15-.55.29-.77c.12-.23.28-.4.45-.52s.35-.22.54-.27.38-.09.56-.1.36,0,.52,0h2.39v.02h-.01Z"/>
      <path class="st2" d="M-94.29,77.34h1.25l.72,4.4.76-4.4h1.81l.75,4.34.75-4.34h1.17l-.99,5.2h-1.79l-.82-4.37-.76,4.37h-1.89l-.96-5.2h.01Z"/>
      <path class="st2" d="M-86.88,81.48h1.25v1.06h-1.25v-1.06Z"/>
      <path class="st2" d="M-83.78,77.34v4.17h2.26l-.57,1.02h-2.93v-5.2h1.24Z"/>
      <path class="st2" d="M-81.12,81.48h1.25v1.06h-1.25v-1.06Z"/>
      <path class="st2" d="M-78.01,77.34v4.17h2.26l-.57,1.02h-2.93v-5.2h1.24Z"/>
    </g>
  </g>
  <rect class="st12" x="362.66" y="289.93" width="86.38" height="52.07"/>
  <g>
    <path class="st5" d="M42.17,249.66"/>
    <path class="st5" d="M43.08,246.81"/>
    <path class="st5" d="M44.04,242.6"/>
  </g>
  <g>
    <g>
      <path class="st3" d="M-110.56,151.02h-13.62v-8.25h20.47v-5.35h-25.81v18.94h18.97v-5.35h0Z"/>
      <path class="st1" d="M-109.08,157.82h-20.46v10.81h5.35v-5.47h20.47v-18.94h-18.97v5.35h13.62v8.25h0Z"/>
    </g>
    <g>
      <path class="st3" d="M-156.55,176.53v2.65c0,1.91.92,2.67,2.82,2.67h4.68v-1.95h-4.61c-.46,0-.6-.25-.6-.7v-.42h5.19v-1.92h-5.16v-.53c0-.33.25-.51.58-.51h4.61v-1.95h-4.7c-.78,0-1.71.24-2.1.62-.5.49-.7,1.09-.7,2.05"/>
      <path class="st1" d="M-139.33,181.2h-.05c-.02-.27-.16-.62-.22-.9-.07-.3-.14-.6-.23-.89-.1-.35-.12-.52-.29-.83-.1-.18-.4-.45-.66-.46v-.05c.51,0,1.1-.58,1.1-1.11v-1.44c0-.56-.5-1.07-.9-1.27-.44-.22-1.16-.38-1.81-.38h-5.33v7.99h2.26v-6.01h2.79c.3,0,.7.09.7.37v.49c0,.28-.2.42-.47.42h-2.21v1.91h1.89c.54,0,.65.78.75,1.25.07.27.11.53.19.81.04.13.13.78.24.78h4.33c.1,0,.52-1.34.6-1.54.21-.52.35-1.09.56-1.59.2-.48.4-1.09.56-1.59.1-.28.19-.51.28-.79.09-.25.17-.61.48-.61h.07c.34,0,.4.31.5.57.1.27.19.51.28.79.18.53.38,1.08.57,1.59.19.51.4,1.08.55,1.58.15.5.45,1.11.56,1.6h2.4c0-.13-.77-2.11-.89-2.37-.15-.37-.28-.82-.44-1.18-.15-.32-.33-.82-.45-1.17-.19-.58-.66-1.87-.94-2.32-.4-.64-1.13-1.09-2.17-1.09-.94,0-1.69.39-2.09.93-.32.45-.69,1.53-.9,2.12-.26.71-.54,1.47-.83,2.19-.14.37-.27.72-.42,1.1-.07.16-.4,1-.41,1.11"/>
      <path class="st1" d="M-129.76,176.16v5.72h2.28v-5.51c0-.3.2-.63.49-.63h.14c.53,0,.64.64.77,1.07.14.44.26.98.43,1.41.19.47.43.76.8,1.04.28.2.9.47,1.37.47h.53c.46,0,1.08-.26,1.36-.46.31-.21.67-.64.8-1.01.17-.45.27-.94.42-1.39.12-.35.28-1.11.71-1.11h.23c.29,0,.47.31.47.63v5.51h2.31v-6.14c0-.24-.22-.73-.32-.89-.14-.21-.39-.48-.61-.6-.51-.31-1.09-.51-1.91-.51-1.21,0-2.15.48-2.56,1.28-.27.52-.29.84-.46,1.45-.13.49-.12,1.25-.69,1.25h-.02c-.34,0-.41-.18-.48-.48-.06-.27-.13-.51-.19-.76-.13-.52-.21-1.04-.46-1.45-.5-.81-1.26-1.29-2.55-1.29-1.63,0-2.86.79-2.86,2.42"/>
      <path class="st1" d="M-166.68,174.09v4.76c0,.39.22,1.02.35,1.3.16.33.48.7.75.91.58.46,1.49.81,2.52.81h5.58v-2.28h-5.19c-.88,0-1.42-.41-1.42-1.28v-3.62c0-1,.56-1.34,1.56-1.34h5.05v-2.26h-5.12c-1.21,0-2.14.17-2.84.7-.3.23-.67.57-.84.92-.17.34-.41.88-.41,1.38"/>
      <path class="st1" d="M-111.7,176.43v2.91c0,.8.41,1.47.84,1.86.43.38,1.24.68,2.04.68h4.21v-1.97h-3.53c-.37,0-.63-.04-.86-.19-.16-.1-.4-.39-.4-.65v-2.39c0-.22.23-.5.38-.6.2-.13.46-.21.79-.21h3.65v-1.97h-4.19c-1.62,0-2.93.96-2.93,2.55"/>
      <rect class="st2" x="-115.2" y="173.88" width="2.28" height="7.99"/>
      <path class="st2" d="M-96.57,171.13h5.97c1.04,0,1.82.21,2.33.64.51.43.77,1.07.77,1.92v1.61c0,.85-.26,1.5-.78,1.92s-1.3.65-2.33.65h-3.68v4.01h-2.3v-10.75h0ZM-94.29,173.37v2.23h3.37c.37,0,.65-.08.84-.22s.29-.36.29-.64v-.53c0-.28-.1-.49-.29-.63-.19-.14-.48-.22-.84-.22h-3.37Z"/>
      <path class="st2" d="M-86.48,173.91h4.48c.87,0,1.51.15,1.94.47.43.31.65.79.65,1.42v.89c0,.42-.08.74-.24.96-.16.23-.42.38-.77.48.22.07.39.18.51.32.11.14.22.4.3.76l.61,2.66h-2.13l-.42-2.08c-.05-.24-.12-.42-.24-.55s-.25-.2-.4-.2h-1.56v-1.88h1.74c.21,0,.35-.03.45-.1s.14-.16.14-.3v-.46c0-.14-.05-.26-.14-.32s-.25-.1-.45-.1h-2.47v5.99h-2v-7.97h0Z"/>
      <path class="st2" d="M-75.71,173.77h2.41c.85,0,1.51.24,1.99.71s.71,1.13.71,1.98v2.85c0,.85-.24,1.51-.71,1.98-.48.47-1.13.71-1.99.71h-2.41c-.86,0-1.51-.24-1.99-.71s-.71-1.13-.71-1.98v-2.85c0-.85.24-1.51.71-1.98.48-.47,1.13-.71,1.99-.71M-76.38,176.75v2.29c0,.31.09.56.27.74s.43.27.74.27h1.75c.31,0,.56-.09.74-.27s.27-.42.27-.74v-2.29c0-.31-.09-.56-.27-.74-.18-.17-.42-.27-.74-.27h-1.75c-.31,0-.56.09-.74.27-.17.17-.27.42-.27.74"/>
      <path class="st2" d="M-66.56,171.24c0,1.48-1.16,2.64-2.68,2.64s-2.69-1.16-2.69-2.64,1.19-2.6,2.69-2.6,2.68,1.16,2.68,2.6M-71.26,171.24c0,1.16.86,2.08,2.04,2.08s1.99-.92,1.99-2.07-.84-2.1-2-2.1-2.02.93-2.02,2.08M-69.65,172.61h-.6v-2.61c.24-.05.57-.08,1-.08.5,0,.71.08.91.19.14.11.26.31.26.57,0,.29-.22.5-.54.6v.03c.26.1.4.29.48.64.08.4.12.55.19.65h-.65c-.08-.1-.12-.33-.21-.64-.05-.29-.21-.41-.54-.41h-.29v1.05h0ZM-69.64,171.13h.29c.33,0,.6-.11.6-.38,0-.24-.17-.4-.55-.4-.16,0-.27.02-.33.03v.74h0Z"/>
    </g>
  </g>
  <g>
    <g>
      <g>
        <polygon class="st2" points="-132.76 -26.44 -133.96 -26.44 -133.96 -42.39 -124.25 -42.39 -124.25 -41.2 -132.76 -41.2 -132.76 -26.44"/>
        <polygon class="st2" points="-129.29 -23.64 -133.36 -23.64 -133.36 -24.83 -130.47 -24.83 -130.47 -31.8 -123.65 -31.8 -123.65 -33.96 -130.47 -33.96 -130.47 -39.09 -122.18 -39.09 -122.18 -41.79 -120.99 -41.79 -120.99 -37.89 -129.29 -37.89 -129.29 -35.14 -122.45 -35.14 -122.45 -30.61 -129.29 -30.61 -129.29 -23.64"/>
        <path class="st2" d="M-111.13-26.62c-3.42,0-3.62-3.06-3.62-3.09v-11.49h-3.07v-1.2h4.26v12.63c.02.25.24,1.94,2.43,1.94s2.67-1.51,2.75-1.81v-12.62h4.4v1.2h-3.21v11.62c-.2.98-1.27,2.82-3.95,2.82h-.01Z"/>
        <path class="st2" d="M-110.68-23.41c-6.68,0-7.01-5.88-7.01-5.94v-9.79h1.2v9.74c.02.31.37,4.78,5.82,4.78,4.71,0,5.32-4.69,5.36-5.12v-9.41h1.2v9.49c0,.06-.63,6.23-6.56,6.23v.02h0Z"/>
        <path class="st2" d="M-87.27-23.64h-4.81l-3.03-6.19h-1.73v6.19h-4.26v-1.2h3.07v-6.19h3.68l3.03,6.19h2.16l-3.41-6.99.98.02s1.14,0,2.03-.9c.8-.81,1.2-2.09,1.17-3.82-.03-1.5-.46-2.68-1.3-3.48-1.29-1.24-3.12-1.21-3.14-1.21h-7.99v-1.2h7.98c.08,0,2.32-.05,3.97,1.53,1.08,1.03,1.63,2.48,1.66,4.32.04,2.07-.48,3.66-1.52,4.69-.67.66-1.4.97-1.97,1.11l3.45,7.09h-.01Z"/>
        <path class="st2" d="M-99.81-26.44h-1.2v-12.42h8.44c.11,0,.99.04,1.62.75.47.51.68,1.22.62,2.08-.06.93-.36,1.61-.89,2.05-.59.48-1.24.47-1.42.45h-5.33v-1.2h5.44s.32.03.58-.19c.26-.22.41-.63.45-1.2.03-.53-.07-.94-.3-1.2-.29-.32-.72-.37-.77-.37h-7.22v11.23h-.02Z"/>
        <path class="st2" d="M-83.31-24.01h-1.2v-4.12h8.27c.11,0,.73-.08.76-1.38s-.89-1.43-1.11-1.45c-.23,0-1.93.04-2.73,0h-.03c-3.21-.18-5.14-2.18-5.43-5.63-.37-4.34,3.16-5.83,5.08-6.01h4.82v1.2h-4.73c-.38.04-4.32.59-3.97,4.71.24,2.87,1.69,4.39,4.31,4.54h.03c.79.05,2.64,0,2.66,0h.04c.06,0,.61.03,1.17.36.53.32,1.15.99,1.12,2.31-.02.91-.27,1.59-.76,2.05-.51.49-1.1.51-1.23.51h-7.05v2.93h-.02Z"/>
        <path class="st2" d="M-76.6-23.64h-4.42v-1.2h4.37c.37-.04,4.17-.55,4.29-4.55.11-3.93-3.1-4.74-3.54-4.84h-3.93c-.06,0-.8,0-1.41-.58-.51-.48-.77-1.19-.79-2.11-.02-.86.23-1.51.73-1.95.68-.6,1.56-.56,1.79-.53h6.19v-3.39h1.2v4.58h-7.5s-.55-.07-.89.24c-.22.2-.33.55-.32,1.04.03,1.44.84,1.52,1,1.52h4.09s4.72.89,4.57,6.06c-.15,5.19-5.35,5.71-5.4,5.71h-.04,0Z"/>
        <polygon class="st2" points="-54.79 -26.45 -61.26 -39.66 -67.7 -26.46 -69.02 -26.45 -61.26 -42.37 -53.46 -26.45 -54.79 -26.45"/>
        <polygon class="st2" points="-52.42 -23.64 -57.01 -23.64 -61.27 -32.53 -65.95 -23.64 -70.02 -23.64 -69.53 -24.83 -66.66 -24.83 -61.21 -35.19 -56.26 -24.83 -52.93 -24.83 -52.42 -23.64"/>
      </g>
      <g>
        <path class="st6" d="M-152.23-42.76s2.88.07,3.85,2.98c.97,2.91-2.41,10.78-2.41,10.78,0,0,3.32-3.35,3.75-8.2.44-4.85-1.43-6.5-5.02-6.36l-.17.81h.01Z"/>
        <path class="st6" d="M-151.26-44.41s4.62-.13,5.25,3.15-.17,6.79-1.57,9.43c-1.4,2.64-4.95,5.82-4.95,5.82l1.18.3s4.04-2.84,6.16-8.42.2-9.55-1.11-10.29-3.58-.54-4.95,0h0Z"/>
        <path class="st6" d="M-148.88-45.88s4.72-.97,5.42,2.54c.71,3.52.2,7.26-1.14,10-.78,1.58-4.31,6.56-6.03,7.83l1.21.3s4.7-4.96,5.96-7.43c2.44-4.78,2.51-7.23,2.01-10.24-.41-2.43-3.95-4.95-7.43-3.01h0Z"/>
        <path class="st6" d="M-148.68-24.79s4.42-4.21,5.99-7.12c1.57-2.93,2.81-9.7,2.81-9.7l1.11,2.49s-.88,3.19-1.57,5.64c-1.04,3.65-5.76,8.1-7.12,9.11l-1.21-.4h0Z"/>
        <path class="st6" d="M-146.44-24.01s6.3-5.27,8.3-11.57l.37,3.08s-3.45,6.19-7.53,9.07l-1.14-.59h0Z"/>
        <path class="st6" d="M-144.07-23.02s4.55-4.15,5.86-6.48c0,0,0,1.77-1.01,3.24s-4.11,4.07-4.11,4.07l-.74-.84Z"/>
      </g>
    </g>
    <g>
      <path class="st2" d="M-88.11-20.52v1.23c1.38.26,2.42,1.46,2.42,3.07,0,1.46-1.02,2.73-2.42,3.01v1.21c2.14-.25,3.76-1.97,3.76-4.23s-1.61-4.03-3.76-4.28h0ZM-93.04-16.25c0,2.26,1.53,3.96,3.76,4.22v-1.2c-1.44-.27-2.42-1.48-2.42-3.01s.97-2.8,2.42-3.07v-1.23c-2.15.27-3.76,1.98-3.76,4.28h0Z"/>
      <path class="st2" d="M-73.6-13.23v1.11h3.57v-1.11h-3.57ZM-73.6-20.41v6.01h1.25v-6.01h-1.25Z"/>
      <path class="st2" d="M-68.51-20.41v8.3h1.26v-8.3h-1.26Z"/>
      <path class="st2" d="M-65.64-17.42v5.3h1.18v-4.13l-1.18-1.17h0ZM-59.46-14.63l-1.33-1.32-4.78-4.75h-.06v1.61l1.2,1.19,1.35,1.33,4.8,4.74h.04v-1.58l-1.22-1.22h0ZM-59.43-20.41v4.15l1.19,1.19v-5.34h-1.19Z"/>
      <path class="st2" d="M-82.8-17.41v5.3h1.18v-4.13l-1.18-1.17h0ZM-76.62-14.61l-1.33-1.32-4.78-4.75h-.06v1.61l1.2,1.19,1.35,1.33,4.8,4.74h.04v-1.58l-1.22-1.22h0ZM-76.59-20.4v4.15l1.19,1.19v-5.34h-1.19Z"/>
      <path class="st2" d="M-54.22-17.04v1.09h1.68v-1.09h-1.68ZM-52.42-19.3v-1.11h-4.23v8.3h4.23v-1.11h-2.98v-6.08h2.98Z"/>
    </g>
  </g>
  <g>
    <path class="st5" d="M199,100.33"/>
    <path class="st5" d="M199.91,97.47"/>
    <path class="st5" d="M200.87,93.27"/>
  </g>
  <g>
    <g>
      <polygon class="st2" points="-265.18 180.74 -273.88 185.33 -272.82 153.5 -264.45 158.75 -265.18 180.74"/>
      <polygon class="st2" points="-217.96 159.71 -218.9 187.58 -227.37 192.05 -227.56 192.16 -227.6 192.18 -226.66 164.14 -217.96 159.71"/>
      <polygon class="st2" points="-264.45 158.75 -272.82 153.5 -245.75 139.26 -246.07 149.09 -264.45 158.75"/>
      <polygon class="st4" points="-220.81 154.45 -249.31 169.82 -258.57 163.38 -230.08 148.39 -220.81 154.45"/>
      <polygon class="st4" points="-246.39 191.21 -227.24 181.15 -227.6 192.18 -246.39 201.87 -246.39 191.21"/>
      <polygon class="st0" points="-227.37 192.05 -227.37 192.05 -227.56 192.16 -227.37 192.05"/>
      <polygon class="st4" points="-231.93 176.47 -232.06 176.54 -249.86 186.13 -249.57 177.63 -232.15 168.47 -231.93 176.47"/>
      <polygon class="st4" points="-249.31 169.82 -250.34 200.45 -259.62 194.59 -258.57 163.38 -249.31 169.82"/>
      <polygon class="st2" points="-263.05 182.12 -263.51 191.97 -273.88 185.33 -265.18 180.74 -263.05 182.12"/>
      <polygon class="st4" points="-241.81 150.99 -246.07 149.09 -245.75 139.26 -233.35 146.23 -241.81 150.99"/>
    </g>
    <g class="st8">
      <g class="st8">
        <g class="st8">
          <g class="st8">
            <path class="st2" d="M-274.55,233.79l-.91,1.69h-3.09c-.12,0-.24.01-.35.03-.11.02-.2.05-.29.1-.09.05-.15.13-.2.24-.06.12-.09.25-.09.4s.03.27.09.38c.05.1.12.18.21.23.08.05.17.09.27.11.1.02.2.04.3.04h1.47c.25,0,.48.02.69.05.21.03.41.09.59.18.18.09.35.22.51.4s.31.4.45.69c.1.18.17.41.22.66.04.26.06.52.06.8,0,.28-.04.55-.1.81-.06.27-.14.5-.25.71-.13.27-.29.48-.47.62s-.37.25-.57.32c-.2.07-.42.11-.64.12-.22.01-.45.02-.67.02h-3.96v-1.69h3.67c.12,0,.25-.01.38-.04.13-.02.25-.06.37-.13s.21-.15.27-.28c.13-.25.13-.5,0-.77-.05-.11-.12-.19-.21-.24-.09-.05-.18-.09-.28-.11s-.2-.03-.3-.02c-.1,0-.19,0-.28,0h-1.2c-.21,0-.42-.02-.62-.05-.2-.04-.39-.1-.58-.19-.19-.09-.36-.22-.53-.39-.16-.17-.31-.39-.45-.67-.09-.19-.17-.41-.22-.67s-.08-.51-.08-.78.02-.52.07-.77c.05-.25.12-.47.22-.67.15-.31.34-.54.57-.69.23-.15.46-.26.71-.33.25-.07.49-.1.73-.1s.44,0,.62,0h3.86Z"/>
            <path class="st2" d="M-269.13,233.79l2.72,8.6h-1.87l-.51-1.56h-1.71l-.87-1.71-1.07,3.26h-1.92l2.76-8.6h2.5ZM-271.34,238.98h2.02l-1-3.24-1.01,3.24Z"/>
            <path class="st2" d="M-266.08,233.79h1.78v5.19c0,.21.02.41.06.59.04.18.11.35.2.51.09.15.24.29.43.41.09.06.2.11.34.14s.28.05.43.05.3-.02.45-.06c.15-.04.28-.1.4-.17.18-.12.32-.27.41-.43.09-.16.16-.34.2-.53.04-.19.06-.38.07-.58,0-.2,0-.4,0-.59v-4.54h1.78v4.93c0,.32-.01.64-.04.95-.02.31-.08.61-.16.89s-.21.55-.39.8c-.17.25-.41.47-.71.66-.22.15-.52.25-.89.33-.37.07-.76.11-1.16.11s-.79-.04-1.16-.11c-.37-.07-.67-.19-.89-.34-.31-.21-.55-.45-.71-.72-.16-.27-.27-.56-.34-.87-.07-.3-.1-.61-.11-.93,0-.32-.01-.63-.01-.94v-4.76Z"/>
            <path class="st2" d="M-255.47,233.79c.25,0,.51,0,.79.02.28.01.55.06.83.16.27.09.54.24.79.45.25.21.48.51.67.9.18.36.32.79.41,1.27.09.49.14.98.15,1.49,0,.51-.04,1-.12,1.49-.09.48-.22.9-.39,1.26-.18.37-.38.66-.61.87-.22.21-.46.36-.71.47-.25.1-.51.17-.78.19s-.55.04-.84.05h-3.57v-8.6h3.39ZM-257.08,240.56h1.57c.2,0,.39-.03.57-.08s.36-.14.52-.27c.16-.12.3-.31.42-.56.09-.19.16-.43.21-.7.05-.28.07-.56.07-.85s-.02-.57-.07-.84c-.05-.27-.12-.49-.21-.67-.13-.24-.26-.42-.41-.55s-.31-.22-.48-.27c-.17-.05-.35-.08-.55-.09-.19,0-.39,0-.6,0h-1.04v4.87Z"/>
            <path class="st2" d="M-249.5,233.79v8.6h-1.78v-8.6h1.78Z"/>
            <path class="st2" d="M-241.92,233.79l2.72,8.6h-1.87l-.51-1.56h-1.71l-.87-1.71-1.07,3.26h-1.92l2.76-8.6h2.5ZM-244.13,238.98h2.02l-1-3.24-1.01,3.24Z"/>
            <path class="st2" d="M-238.86,233.79h4.02c.18,0,.36,0,.55,0s.37.03.55.09c.18.05.36.14.54.27.18.13.35.31.51.55.13.2.24.43.31.68s.12.51.14.77c.03.26.03.51.02.75-.01.24-.04.45-.08.63-.07.32-.19.6-.34.84-.15.23-.38.43-.68.58-.19.11-.36.17-.49.19-.13.02-.26.04-.4.05l1.86,3.19h-2.08l-2.65-4.66v4.66h-1.78v-8.6ZM-237.07,237.49h1.91c.14,0,.27-.01.39-.04.12-.03.23-.07.34-.13.1-.06.19-.15.25-.28.08-.15.12-.34.12-.56s-.03-.39-.09-.52c-.07-.14-.16-.24-.29-.31-.12-.07-.25-.11-.39-.13-.14-.02-.27-.03-.4-.03h-1.84v2.01Z"/>
            <path class="st2" d="M-226.79,233.79l2.72,8.6h-1.87l-.51-1.56h-1.71l-.87-1.71-1.07,3.26h-1.93l2.76-8.6h2.5ZM-229,238.98h2.01l-1-3.24-1.01,3.24Z"/>
            <path class="st2" d="M-219.26,233.79c.18,0,.36.02.53.03.17.01.34.04.5.08s.31.11.45.21c.14.1.28.23.41.41.11.15.2.32.27.5.06.18.11.36.14.55s.04.37.04.55c0,.18-.02.33-.05.47-.08.44-.22.77-.41,1-.19.23-.46.4-.79.52.24.09.45.23.64.4.18.18.33.41.45.7.15.35.21.73.2,1.14-.01.41-.11.79-.29,1.12-.13.24-.28.42-.43.55s-.31.22-.48.27c-.17.05-.34.08-.52.09-.18,0-.37,0-.55,0h-4.61v-8.6h4.51ZM-221.98,237.14h2.16c.13,0,.25,0,.39-.03.13-.02.25-.06.36-.11.11-.05.2-.14.28-.25.07-.11.1-.23.1-.36s-.03-.25-.08-.37c-.05-.11-.13-.19-.24-.24-.1-.05-.22-.09-.34-.11-.12-.02-.25-.03-.38-.03h-2.25v1.51ZM-221.98,240.57h2.35c.13,0,.25-.01.36-.04.1-.02.19-.06.28-.12.08-.05.15-.13.21-.24.06-.12.09-.25.09-.39,0-.15-.03-.27-.09-.38-.06-.11-.15-.19-.27-.24-.12-.05-.25-.09-.4-.12s-.3-.04-.45-.04h-1.25l-.82-1.6v3.16Z"/>
            <path class="st2" d="M-214.53,233.79v8.6h-1.78v-8.6h1.78Z"/>
            <path class="st2" d="M-208.85,233.79l2.72,8.6h-1.87l-.51-1.56h-1.71l-.87-1.71-1.07,3.26h-1.93l2.76-8.6h2.5ZM-211.06,238.98h2.01l-1-3.24-1.01,3.24Z"/>
          </g>
        </g>
      </g>
    </g>
    <g class="st8">
      <g class="st8">
        <g class="st8">
          <g class="st8">
            <path class="st2" d="M-289.56,210l4.9,15.45v-15.45h3.53v18.59h-6.11l-4.6-15.02v15.02h-3.55v-18.59h5.83Z"/>
            <path class="st2" d="M-279.78,210h12.14l-1.73,3.66h-6.55v4.14h7.91v3.64h-7.91v3.49h7.91v3.66h-11.77v-18.59Z"/>
            <path class="st2" d="M-267.43,210h3.88l2.23,15.72,2.36-15.72h5.64l2.34,15.5,2.32-15.5h3.64l-3.08,18.59h-5.59l-2.54-15.62-2.36,15.62h-5.85l-2.99-18.59Z"/>
            <path class="st2" d="M-240.51,210h12.14l-1.73,3.66h-6.55v4.14h7.91v3.64h-7.91v3.49h7.91v3.66h-11.77v-18.59Z"/>
            <path class="st2" d="M-227.24,210h8.69c.39,0,.78,0,1.18.01.4.01.79.07,1.18.19.39.12.78.31,1.16.59s.75.67,1.09,1.18c.29.43.51.92.66,1.47.15.55.26,1.11.31,1.67s.07,1.11.04,1.63-.09.98-.17,1.36c-.16.7-.4,1.3-.73,1.81s-.81.93-1.46,1.26c-.42.23-.77.37-1.05.41-.28.04-.57.08-.86.11l4.01,6.9h-4.49l-5.72-10.07v10.07h-3.86v-18.59ZM-223.38,218h4.13c.3,0,.57-.03.83-.09s.5-.15.73-.29c.22-.13.4-.33.53-.6.17-.33.26-.73.26-1.21s-.07-.85-.19-1.13c-.14-.3-.35-.52-.62-.66s-.55-.24-.85-.29-.58-.08-.86-.08h-3.97v4.34Z"/>
            <path class="st2" d="M-201.14,210l5.87,18.59h-4.05l-1.11-3.36h-3.71l-1.89-3.69-2.32,7.05h-4.16l5.96-18.59h5.4ZM-205.93,221.21h4.36l-2.17-7-2.19,7Z"/>
          </g>
        </g>
      </g>
    </g>
  </g>
  <g>
    <g>
      <polygon class="st2" points="-263.82 64.27 -272.51 68.87 -271.45 37.02 -263.08 42.27 -263.82 64.27"/>
      <polygon class="st2" points="-216.58 43.24 -217.52 71.11 -225.98 75.59 -226.18 75.69 -226.21 75.71 -225.28 47.66 -216.58 43.24"/>
      <polygon class="st2" points="-263.08 42.27 -271.45 37.02 -244.38 22.79 -244.69 32.61 -263.08 42.27"/>
      <polygon class="st4" points="-219.42 37.97 -247.93 53.35 -257.2 46.9 -228.69 31.91 -219.42 37.97"/>
      <polygon class="st4" points="-245.01 74.76 -225.85 64.68 -226.21 75.71 -245.01 85.41 -245.01 74.76"/>
      <polygon class="st0" points="-225.98 75.59 -225.98 75.59 -226.18 75.69 -225.98 75.59"/>
      <polygon class="st4" points="-230.54 60.01 -230.67 60.07 -248.48 69.67 -248.19 61.16 -230.76 52 -230.54 60.01"/>
      <polygon class="st4" points="-247.93 53.35 -248.96 83.99 -258.25 78.13 -257.2 46.9 -247.93 53.35"/>
      <polygon class="st2" points="-261.67 65.65 -262.14 75.51 -272.51 68.87 -263.82 64.27 -261.67 65.65"/>
      <polygon class="st4" points="-240.43 34.52 -244.69 32.61 -244.38 22.79 -231.96 29.74 -240.43 34.52"/>
    </g>
    <g class="st8">
      <g class="st8">
        <g class="st8">
          <g class="st8">
            <path class="st2" d="M-261.2,117.36c.18,0,.36.02.53.03.17.01.34.04.5.08s.31.11.45.21.28.23.41.41c.11.15.2.32.27.5s.11.36.14.55c.03.19.04.37.04.55,0,.18-.02.33-.05.47-.08.44-.22.77-.41,1-.19.23-.46.4-.79.52.24.09.45.23.64.4.18.18.33.41.45.7.15.35.21.73.2,1.14-.01.42-.11.79-.29,1.12-.13.24-.28.42-.43.55-.15.13-.31.22-.48.27s-.34.08-.52.09c-.18,0-.36,0-.55,0h-4.61v-8.6h4.51ZM-263.92,120.7h2.16c.13,0,.26,0,.39-.03.13-.02.25-.06.36-.11.11-.05.2-.14.28-.25.07-.11.1-.23.1-.36s-.03-.25-.08-.37c-.05-.11-.13-.19-.24-.24-.1-.05-.22-.09-.34-.12-.12-.02-.25-.03-.38-.03h-2.25v1.51ZM-263.92,124.13h2.35c.13,0,.25-.01.36-.03.1-.02.2-.06.28-.12.08-.05.15-.13.21-.24.06-.12.09-.25.08-.39,0-.15-.03-.27-.08-.38-.06-.11-.15-.19-.27-.24s-.25-.09-.4-.12-.3-.04-.45-.04h-1.25l-.82-1.6v3.16Z"/>
            <path class="st2" d="M-253.37,117.36l2.72,8.6h-1.87l-.51-1.55h-1.71l-.87-1.71-1.07,3.26h-1.92l2.76-8.6h2.5ZM-255.58,122.54h2.01l-1-3.24-1.01,3.24Z"/>
            <path class="st2" d="M-250.33,117.36h1.78v3.32h2.63v-3.32h1.77v8.6h-1.77v-4.99l-.87,1.57h-1.75v3.42h-1.78v-8.6Z"/>
            <path class="st2" d="M-243.47,117.36h4.02c.18,0,.36,0,.55,0s.37.03.55.09c.18.05.36.14.54.27.18.13.35.31.51.55.13.2.24.43.31.68.07.25.12.51.15.77s.03.51.02.75-.04.45-.08.63c-.07.32-.19.6-.34.84-.15.23-.38.43-.68.58-.19.11-.36.17-.49.19-.13.02-.26.04-.4.05l1.85,3.19h-2.08l-2.65-4.65v4.65h-1.78v-8.6ZM-241.69,121.05h1.91c.14,0,.27-.01.39-.04.12-.03.23-.07.34-.13.1-.06.19-.15.25-.28.08-.15.12-.34.12-.56s-.03-.39-.09-.52c-.07-.14-.16-.24-.29-.31s-.25-.11-.39-.13-.27-.04-.4-.04h-1.83v2Z"/>
            <path class="st2" d="M-231.4,117.36l2.72,8.6h-1.87l-.51-1.55h-1.71l-.87-1.71-1.07,3.26h-1.92l2.76-8.6h2.5ZM-233.62,122.54h2.01l-1-3.24-1.01,3.24Z"/>
            <path class="st2" d="M-226.61,117.36v8.6h-1.78v-8.6h1.78Z"/>
            <path class="st2" d="M-223.13,117.36l2.27,7.14v-7.14h1.63v8.6h-2.83l-2.13-6.95v6.95h-1.64v-8.6h2.7Z"/>
          </g>
        </g>
      </g>
    </g>
    <g class="st8">
      <g class="st8">
        <g class="st8">
          <g class="st8">
            <path class="st2" d="M-288.2,93.56l4.9,15.45v-15.45h3.53v18.59h-6.11l-4.59-15.02v15.02h-3.56v-18.59h5.83Z"/>
            <path class="st2" d="M-278.42,93.56h12.14l-1.73,3.66h-6.55v4.14h7.91v3.64h-7.91v3.49h7.91v3.66h-11.77v-18.59Z"/>
            <path class="st2" d="M-266.07,93.56h3.88l2.23,15.72,2.36-15.72h5.64l2.34,15.5,2.32-15.5h3.64l-3.08,18.59h-5.59l-2.54-15.62-2.36,15.62h-5.85l-2.99-18.59Z"/>
            <path class="st2" d="M-239.15,93.56h12.14l-1.73,3.66h-6.55v4.14h7.91v3.64h-7.91v3.49h7.91v3.66h-11.77v-18.59Z"/>
            <path class="st2" d="M-225.88,93.56h8.69c.39,0,.78,0,1.18.01.4,0,.79.07,1.18.19.39.12.78.31,1.16.59.38.27.75.67,1.09,1.18.29.43.51.92.66,1.47.15.55.26,1.11.31,1.67.06.57.07,1.11.04,1.63s-.09.98-.17,1.36c-.16.7-.4,1.3-.73,1.81-.33.51-.81.93-1.46,1.26-.42.23-.77.37-1.05.41-.28.04-.57.08-.86.11l4.01,6.9h-4.49l-5.72-10.07v10.07h-3.86v-18.59ZM-222.02,101.56h4.13c.3,0,.57-.03.83-.09.26-.06.5-.15.73-.29.22-.13.4-.33.53-.6.17-.33.26-.73.26-1.21s-.07-.85-.2-1.13c-.14-.3-.35-.52-.62-.66s-.55-.24-.85-.29c-.3-.05-.58-.08-.86-.08h-3.97v4.34Z"/>
            <path class="st2" d="M-199.78,93.56l5.87,18.59h-4.05l-1.11-3.36h-3.71l-1.89-3.69-2.32,7.05h-4.16l5.96-18.59h5.4ZM-204.57,104.77h4.36l-2.17-7-2.19,7Z"/>
          </g>
        </g>
      </g>
    </g>
  </g>
  <g>
    <g>
      <path class="st2" d="M-295.07,349.58c-.07-.04-.19-.06-.29,0-.6.53-1.18,1.06-1.88,1.43-.3.16-.55.3-.83.39-.34.1-.56-.13-.46-.39l.04-.14c.04-.16.13-.34.22-.52.03-.07.09-.14.13-.22.27-.42.33-.43.45-.57.01-.03.04-.04.06-.07.03-.03.07-.09.07-.12h0c0-.17-.33-.27-.43-.16-.09.13-.22.25-.32.37h-.01l-.44.42-.83.89c-.13.14-.27.29-.43.42-.11.12-.23.19-.39.27-.01.01-.03.01-.04.01-.04-.11-.01-.25.03-.36.09-.27.27-.49.44-.69.17-.22.39-.4.56-.55.2-.14.42-.27.65-.37-.03.01.04-.01.06-.01.01-.01.04,0,.06-.01h.01s.04.03.07.03c.09.04.2.04.24-.06.07-.16-.11-.26-.24-.3-.11-.01-.26.01-.36.04-.3.1-.55.22-.76.37-.3.22-.56.47-.79.76-.2.27-.42.56-.43.92,0,.16.06.33.19.43.19.13.39.13.56.06.16-.06.29-.13.4-.23.14-.1.27-.27.42-.4.16-.14.3-.27.43-.43-.06.2-.09.43.03.6.19.32.63.36.98.32.22-.04.42-.13.99-.45.19-.1.3-.19.55-.34.53-.34.96-.73,1.44-1.15.07-.06-.04-.17-.11-.2h-.04,0Z"/>
      <path class="st2" d="M-295.13,349.41c-.14.12-.29.4-.39.65l-.3.55-.09.17c-.13.24-.16.27-.43.69l-.17.26c-.03.06.06.19.13.22.06.01.23.06.26,0,0-.01.03-.04.04-.07.1-.14.13-.19.2-.32l.33-.37.33-.3.36-.34.26-.2.34-.2.16-.1.27-.16.14-.07c.13-.07.27-.14.43-.22l.13-.04s.03-.01.04-.01c.14-.04.2-.04.23-.04.11.04.33.09.39-.03.04-.19-.13-.27-.26-.3-.03-.01-.13-.01-.22-.01-.1.01-.11.01-.11.01-.2.03-.42.1-.62.19l-.13.06-.09.04c-.46.25-.88.53-1.25.79.13-.2.43-.73.32-.76-.03-.02-.04-.03-.04-.03-.09-.03-.2-.06-.27-.03h0v-.03h0Z"/>
      <path class="st2" d="M-288.14,349.5c-.07-.06-.25-.12-.33-.04-1,.79-2.14,1.54-3.3,2.1-.23.11-.43.19-.63.24-.16.04-.4.14-.4-.11h0c0-.17.06-.3.1-.43.22-.63.53-1.22.83-1.81.26-.47.55-.96.8-1.43h1.32s0,.07.04.1c.07.09.2.11.32.1.26-.04.49-.13.73-.17.09-.01.13-.1.1-.17-.04-.09-.16-.14-.24-.16-.37-.04-.76-.03-1.13-.03-.32,0-.63-.01-.93-.01v-.03c.09-.13.16-.26.23-.4l.09-.17c.04-.07.11-.16.16-.24.22-.33.42-.69.68-1,.03-.06.03-.11,0-.16-.04-.06-.13-.09-.22-.09-.09.01-.13.03-.17.09l-.1.11-.2.26-.34.52c-.1.16-.2.32-.29.47l-.09.16c-.04.07-.09.14-.11.22-.06.1-.11.19-.16.27-.19.01-.37.01-.56.01h-2.46c-2.97.03-3.22.03-3.44.03-.47,0-.93,0-1.39.01h-.06.03s-.1,0-.13.03c-.03.03-.07.07-.06.11.06.22.3.2.47.19h.5c.6,0,1.19-.01,1.78-.01.79,0,1.58-.01,2.37-.01.82-.01,1.64-.01,2.47-.01h.27c-.24.4-.47.8-.69,1.22-.33.59-.65,1.18-.86,1.81-.07.2-.16.43-.14.65,0,.19.13.33.29.42.37.2.86.04,1.24-.1.56-.23,1.08-.53,1.59-.85.37-.23.72-.44,1.06-.69.33-.24.73-.49,1.03-.76.07-.06,0-.16-.06-.2h0v-.04h-.02.01Z"/>
      <path class="st2" d="M-280.08,349.44c-.22.17-.46.33-.69.49l-.85.62c-.23.16-.46.3-.69.44l-.4.26-.22.1-.09.06s-.04.02-.06.02h-.03c-.07.04-.19.11-.19.02v-.06l.04-.11c.13-.4.36-.77.56-1.16.07-.14.14-.3.19-.46.04-.11.07-.26.03-.37-.04-.13-.23-.16-.33-.13-.23.04-.44.17-.63.32-.23.19-.44.39-.65.6-.26.29-.52.59-.78.88.22-.44.44-.88.66-1.31.4-.78.79-1.55,1.26-2.3.14-.23.3-.46.46-.67l.35-.46c.1-.14.2-.29.32-.42l.09-.09.07-.06.04-.03h0s.07.01.1,0l.1-.07v-.09h0c-.03-.1-.13-.14-.22-.15-.3-.03-.52.2-.69.42l-.23.32c-.09.13-.17.23-.26.34-.53.72-.96,1.48-1.38,2.27l-.82,1.59c-.27.54-.55,1.09-.69,1.68,0,.09.06.14.11.17.09.06.22.07.29-.01.4-.37.73-.83,1.09-1.25.2-.24.42-.47.65-.7.2-.2.37-.37.6-.52v.03c-.07.19-.17.37-.27.56l-.3.6c-.07.16-.16.33-.19.5-.03.19,0,.35.19.45.2.11.47.06.67-.03.29-.11.58-.29.83-.46l.69-.44c.29-.2.57-.42.86-.63.13-.09.26-.19.37-.29.06-.04.11-.1.19-.14,0-.03.04-.04.06-.06,0-.01.03-.01.03-.03,0,0,.04-.03.03-.01.16-.13-.17-.32-.29-.22h.03,0Z"/>
      <path class="st2" d="M-276.87,349.35c-.11.09-.24.14-.37.22l-.43.2c-.33.13-.66.24-1.01.32h-.03c.09-.23.14-.46,0-.66-.11-.17-.34-.23-.53-.13-.11.07-.22.2-.26.33-.04.09-.04.2-.04.29,0,.13.03.26.11.36,0,.01.03.03.04.04-.03.04-.07.09-.11.14-.14.2-.32.39-.47.57-.19.19-.34.34-.57.46l-.07.04s-.03.01-.04.01c-.03,0-.04.01-.07.01-.04,0-.11,0-.11-.07v-.12c0-.07.03-.14.04-.2.09-.33.27-.63.47-.89s.42-.49.66-.69c.13,0,.19-.16.07-.25-.07-.06-.2-.09-.29-.04-.34.2-.63.49-.88.8-.22.3-.42.65-.5,1.02-.03.11-.04.24,0,.36.03.14.11.24.23.32.24.14.53.09.78-.01.26-.1.47-.3.66-.5.16-.17.3-.34.44-.53.09-.1.16-.2.23-.3.17-.01.36-.06.49-.07.34-.07.67-.19.99-.32.32-.13.63-.27.89-.49.17-.14-.17-.32-.3-.23h-.02ZM-279.08,349.51h0Z"/>
      <path class="st2" d="M-277.61,351.62h0ZM-271.93,349.47c-.1-.06-.23-.07-.32.01-.5.49-1.02.9-1.59,1.31-.26.19-.53.34-.82.49-.14.07-.26.13-.43.17l-.1.03c-.19.06-.29-.03-.29-.22v-.07c0-.07.03-.14.04-.22.03-.11.09-.24.13-.36.1-.22.22-.42.37-.62.06-.09.11-.17.19-.24l.09-.09c-.04.06.04-.03.04-.03,0-.01.03-.04.03-.06.03-.06,0,0,0-.01.12-.19-.23-.32-.37-.23-.11.07-.23.17-.33.27-.16.13-.3.29-.44.43-.36.34-.72.7-1.11,1.03l-.07.06s0,.01-.03.03c0,0-.04.03,0,.01l-.13.11-.26.17-.24.14s0,.01-.03.01c.04-.01,0,0-.03.01-.06.01-.07,0-.07-.01v-.16c.03-.1.06-.19.1-.29l.13-.23c.04-.07.11-.23.13-.24l.34-.5c.1-.14.22-.29.32-.44l.13-.17.04-.07.03-.03h0s.07-.08.04-.14c-.03-.07-.12-.1-.2-.11-.06-.01-.2-.03-.26.07,0,.01-.03.03-.03.04l-.09.1c-.06.09-.11.17-.19.26-.16.22-.3.43-.44.65-.16.23-.29.46-.4.7-.07.16-.16.37-.11.56.04.2.24.33.44.36.19.03.36-.04.52-.13.17-.09.34-.22.5-.33.2-.16.39-.33.58-.5.1-.09.19-.16.27-.24-.06.19-.1.37-.07.56.06.29.3.47.59.49.33.04.66-.1.95-.23s.56-.3.83-.49c.57-.39,1.11-.82,1.61-1.29l.11-.11c.09-.07-.04-.19-.1-.22h0Z"/>
      <path class="st2" d="M-268.55,349.58c-.09-.06-.2-.09-.29-.03-.19.13-.37.33-.55.46l-.47.37c-.29.22-.53.4-.83.59-.26.16-.34.22-.65.37-.06.03-.11.06-.37.14-.27.09-.55.19-.8.19,0-.04,0-.07.03-.1.07-.27.14-.56.24-.82l.14-.4.09-.19.09-.17.22-.32.13-.14c.07-.07.11-.1.13-.12l.17-.11.1-.04h0l.06-.03h0c.09-.03.14-.09.1-.17-.06-.11-.23-.17-.36-.14-.54.19-.9.66-1.13,1.16-.23.52-.35,1.03-.49,1.58h-.09l-.06-.04s-.03-.01-.04-.01c-.04-.01-.09-.03-.13-.06l-.06-.03-.16-.12-.06-.04s-.03-.04-.04-.04c-.03-.04-.06-.07-.09-.1s-.04-.06-.07-.09c-.04-.11-.23-.14-.34-.11-.04.01-.11.06-.09.11v.04s.04.1.07.13c.03.04.09.1.13.14.1.11.2.22.29.33l.32.29c.07.09.16.17.26.23.09.04.2.09.3.04.04,0,.09-.01.1-.04.04-.04.09-.1.1-.16,0-.04.03-.09.04-.13.11,0,.24-.01.36-.03.57-.09.9-.24,1.42-.52.39-.22.75-.45,1.09-.69.24-.17.34-.27.57-.44.11-.09.22-.19.32-.27.13-.11.23-.19.32-.3.04-.07.03-.13-.03-.17h.01Z"/>
      <path class="st2" d="M-268.87,350.77c.25-.09.5-.24.7-.39.22-.16.4-.33.55-.53.14-.2.27-.49.04-.68-.27-.2-.65-.06-.88.09-.27.16-.52.36-.7.55-.22.2-.44.47-.6.72-.13.22-.27.52-.22.77.09.27.36.43.63.46.23.01.47-.01.69-.07.4-.1.88-.33,1.25-.53.54-.29,1.03-.62,1.45-.9l.46-.32.06-.04.19-.14.04-.04.03-.04v-.1l-.04-.04s0-.03-.09-.04c0,0-.06-.01-.04-.01h0s-.07,0-.1.01c-.1.03-.2.1-.27.14-.14.11-.34.23-.5.34-.78.53-1.42.95-2.12,1.26-.3.13-.55.22-.89.25h-.13s-.06-.01-.09-.03c-.1-.09-.09-.19-.09-.29v-.06s.03-.03.03-.04v-.04c0-.07.04-.13.07-.19.02-.04.03-.05.03-.03.17.07.4.04.55-.03h0ZM-269.27,350.56l.07-.1c.19-.24.42-.46.65-.66,0,0,.06-.04.07-.06.07-.06.13-.11.22-.17.14-.1.27-.17.4-.2,0,.1-.04.2-.04.2-.47.72-1.42,1.08-1.36.99h-.01Z"/>
    </g>
    <g>
      <path class="st10" d="M-256.71,336.68c2.74,0,12.2-4.7,13.72-5.54.27-.14.37-.37.37-.57,0-.34-.27-.71-.68-.71-.1,0-.24,0-.34.07-1.76.95-10.92,5.41-12.94,5.41-.27-.03-.41-.03-.41-.41,0-1.18,1.93-4.6,2.33-5.07.1-.14.14-.24.14-.37,0-.34-.34-.71-.71-.71-.17,0-.34.07-.47.2-.98.95-6.73,6.32-8.48,6.32-.14,0-.2,0-.2-.2,0-1.22,3.18-5.27,3.18-5.75,0-.37-.41-.68-.74-.68-.2,0-.37.1-.54.3-.68.95-3.24,4.39-3.24,6.35,0,.78.41,1.32,1.49,1.35,1.62,0,4.6-2.37,6.42-3.92-.24.61-.51,1.42-.51,2.16,0,1.01.41,1.66,1.62,1.76h-.01Z"/>
      <path class="st10" d="M-244.1,338.78c2.81,0,7.4-2.7,7.71-4.9,5.98-1.52,12.81-2.64,12.98-2.64.41,0,.71-.3.71-.71,0-.37-.3-.68-.71-.68-.17,0-7.27,1.12-13.38,2.7-.98-1.32-5.14-1.69-5.64-2.03.1-.1.41-.3.84-.51,1.66-.74,4.43-1.45,5.71-1.45l.41.07c-.27.44-.58.78-1.18,1.12-.24.14-.37.37-.37.64,0,.37.3.64.68.64.1,0,.24,0,.34-.07,1.15-.61,1.86-1.45,1.96-2.47,0-.3-.17-.57-.41-.81-.41-.41-.71-.41-1.45-.47-.88,0-2.23.24-3.55.61-2.53.71-4.29,1.42-4.43,2.74l.07.3c.34,1.32,3.38,1.42,5.27,2.13l-.2.07c-4.09,1.18-7.3,2.43-7.3,4.16.1.91.61,1.55,1.96,1.55h-.02,0ZM-244.1,337.39c-.2,0-.37-.03-.51-.1-.05,0-.07-.03-.07-.1,0-.24.54-.61,1.45-1.08,1.42-.68,3.04-1.08,5.14-1.79-1.08,1.52-4.43,3.08-6.02,3.08h.01Z"/>
      <path class="st10" d="M-222.47,336.72c4.83,0,12.17-3.24,16.73-5.54.27-.14.41-.37.41-.58,0-.37-.34-.74-.71-.74-.1,0-.2,0-.3.07-4.36,2.2-11.53,5.41-16.05,5.41-1.52-.03-2.03-.34-2.03-1.12,0-.57.27-1.28.68-1.96.31.17.68.24,1.12.24.95,0,2.16-.37,3.18-.95,1.49-.85,2.1-1.86,2.1-2.67,0-.91-.78-1.59-1.96-1.59-.91,0-2.03.41-3.21,1.39-1.59,1.32-3.24,3.68-3.24,5.61,0,1.49.91,2.4,3.31,2.43h-.03ZM-222.67,331.14l-.31-.03c1.25-1.59,2.84-2.5,3.65-2.5.34,0,.54.14.54.37,0,.3-.41.85-1.39,1.39-.57.34-1.79.78-2.5.78h0Z"/>
      <path class="st10" d="M-254.57,343.99c-4.21.63-8.52.85-12.78.53-1.92-.14-3.74-.63-4.85-2.31-.9-1.36-1.24-3.04-1.33-4.64-.11-1.92.11-3.84.05-5.75-.05-1.52-.16-3.43-1.16-4.67-2.05-2.53-5.39.56-6.82,2.24-1.67,1.96-2.92,4.25-4.57,6.21,1.23-5.01,2.26-10.07,3.09-15.16.45-2.76.93-5.54,1.17-8.33.14-1.64-.14-3.86-2.06-4.31-2.09-.49-4.35,1.56-5.66,2.94-1.72,1.8-3.03,3.95-4.33,6.05-2.47,3.99-4.75,8.1-7.05,12.19-3.02,5.35-6.13,10.65-9.51,15.78-.51.78.74,1.5,1.24.73,5.08-7.72,9.43-15.84,14.08-23.82,2.16-3.7,4.28-8.03,7.58-10.86.75-.65,2.04-1.73,3.12-1.63,1.35.12,1.24,1.98,1.16,2.94-.23,2.66-.69,5.31-1.12,7.94-.97,5.96-2.22,11.87-3.74,17.72-.19.74.67,1.14,1.2.7,2.25-1.86,3.69-4.42,5.39-6.75.9-1.24,1.91-2.45,3.17-3.32.92-.64,2.1-1.17,2.77.05.47.85.53,1.97.59,2.91.2,3.38-.52,6.83.75,10.07,1.16,2.97,3.58,4.25,6.66,4.51,4.45.37,8.95.1,13.36-.57.91-.14.53-1.53-.38-1.39h-.02Z"/>
    </g>
  </g>
</svg>